<svg width="726" height="11098" viewBox="0 0 726 11098" fill="none" xmlns="http://www.w3.org/2000/svg">
<rect width="726" height="11098" fill="black"/>
<g id="floats" clip-path="url(#clip0)">
<rect width="726" height="11098" fill="white"/>
<g id="p-512-8-0">
<circle id="Ellipse 92" cx="256" cy="512" r="2" fill="#202020"/>
<rect id="Rectangle 56" x="254" width="4" height="512" fill="#202020"/>
<ellipse id="515" cx="256" cy="504" rx="4" ry="1" fill="#202020"/>
<rect id="Rectangle 58" x="252" y="480" width="8" height="24" fill="#202020"/>
<ellipse id="516" cx="256" cy="480" rx="4" ry="1" fill="#202020"/>
<ellipse id="514" cx="256" cy="64" rx="4" ry="1" fill="#202020"/>
<rect id="Rectangle 57" x="252" width="8" height="64" fill="#202020"/>
<ellipse id="513" cx="256" rx="4" ry="1" fill="#202020"/>
</g>
<g id="p-384-8-0">
<circle id="Ellipse 93" cx="256" cy="384" r="4" fill="#202020"/>
<rect id="Rectangle 28" x="252" width="8" height="384" fill="#202020"/>
</g>
<g id="p-256-8-0">
<circle id="Ellipse 94" cx="256" cy="256" r="4" fill="#202020"/>
<rect id="Rectangle 27" x="252" width="8" height="256" fill="#202020"/>
</g>
<g id="P-256-128-8">
<ellipse id="Ellipse 68" cx="256" cy="256" rx="4" ry="1" fill="#EDDBBC"/>
<path id="Vector 17" d="M320 0C320 132 260 240 260 256L252 256C252 240 192 132.5 192 -3.35703e-05L320 0Z" fill="#EDDBBC"/>
</g>
<g id="p-256-32-32">
<ellipse id="Ellipse 70" cx="256" cy="256" rx="16" ry="4" fill="#DE9C46"/>
<rect id="Rectangle 55" x="240" width="32" height="256" fill="#DE9C46"/>
<ellipse id="Ellipse 71" cx="256" rx="16" ry="4" fill="#DE9C46"/>
</g>
<g id="p-256-32-8">
<ellipse id="514_2" cx="256" cy="256" rx="4" ry="1" fill="#202020"/>
<path id="Vector 32" d="M252 256C252 192 240 68 240 0H272C272 68 260 192 260 256H252Z" fill="#202020"/>
<ellipse id="513_2" cx="256" rx="16" ry="4" fill="#202020"/>
</g>
<g id="p-254-64-8">
<path id="Vector 23" d="M255.999 256H256H256.001C260.001 256 263 256 264 254C266 249 288 31.9995 288 -0.000457764H224C224 31.9995 246 249 248 254C249 256 251.999 256 255.999 256Z" fill="#187169"/>
<ellipse id="Ellipse 69" rx="32" ry="8" transform="matrix(1 0 0 -1 256 0)" fill="#187169"/>
</g>
<g id="p-254-8-64">
<ellipse id="Ellipse 68_2" cx="256" cy="254" rx="32" ry="8" fill="#187169"/>
<path id="Vector 22" d="M255.999 -1.99982H256H256.001C260.001 -1.99982 263 -1.99982 264 0.000183344C266 5 288 222 288 254H224C224 222 246 5.00002 248 0.000183344C249 -1.99982 251.999 -1.99982 255.999 -1.99982Z" fill="#187169"/>
</g>
<g id="p-192-8-32">
<ellipse id="513_3" cx="256" cy="192" rx="16" ry="4" fill="#202020"/>
<path id="Vector 33" d="M240 192C240 64 252 64 252 0H260C260 64 272 64 272 192H240Z" fill="#202020"/>
<ellipse id="514_3" cx="256" rx="4" ry="1" fill="#202020"/>
</g>
<g id="p-128-128-64">
<ellipse id="Ellipse 66" cx="256" cy="128" rx="32" ry="8" fill="#8E4D3C"/>
<path id="Vector 28" d="M192 16V0H320L320 16C320 32 288 96 288 112V128H224V112C224 96 192 32 192 16Z" fill="#8E4D3C"/>
<ellipse id="Ellipse 68_3" cx="256" rx="64" ry="16" fill="#8E4D3C"/>
</g>
<g id="p-128-128-32">
<ellipse id="Ellipse 65" cx="256" cy="128" rx="16" ry="4" fill="#92C091"/>
<path id="Vector 21" d="M272 128C272 96 320 48 320 -1.52588e-05L192 -4.06867e-06C192 48 240 96 240 128L272 128Z" fill="#92C091"/>
</g>
<g id="p-128-128-8">
<ellipse id="Ellipse 68_4" cx="256" cy="128" rx="4" ry="1" fill="#202020"/>
<path id="Vector 3" d="M192 0C192 58.6404 252 82.2069 252 128H260C260 82.2069 320 59.2709 320 0H192Z" fill="#202020"/>
</g>
<g id="p-128-64-128">
<ellipse id="Ellipse 68_5" cx="256" cy="128" rx="64" ry="16" fill="#E7CE4F"/>
<path id="Vector 25" d="M192 128C192 96 224 80 224 0H288C288 80 320 96 320 128H192Z" fill="#E7CE4F"/>
<ellipse id="Ellipse 69_2" cx="256" rx="32" ry="8" fill="#E7CE4F"/>
</g>
<g id="p-128-64-32">
<ellipse id="Ellipse 73" cx="256" cy="128" rx="16" ry="4" transform="rotate(-180 256 128)" fill="#CAD1D6"/>
<path id="Vector 20" d="M288 0C288 48 272 80 272 128L240 128C240 80 224 48 224 -5.59506e-06L288 0Z" fill="#CAD1D6"/>
<ellipse id="Ellipse 72" cx="256" cy="-2.79753e-06" rx="32" ry="8" transform="rotate(-180 256 -2.79753e-06)" fill="#CAD1D6"/>
</g>
<g id="p-128-32-64">
<ellipse id="Ellipse 69_3" cx="256" cy="128" rx="32" ry="8" fill="#92C091"/>
<path id="Vector 18" d="M224 128C224 80 240 48 240 0H272C272 48 288 80 288 128H224Z" fill="#92C091"/>
<ellipse id="Ellipse 68_6" cx="256" rx="16" ry="4" fill="#92C091"/>
</g>
<g id="p-128-32-8">
<ellipse id="Ellipse 67" cx="256" cy="128" rx="4" ry="1" fill="#E7CE4F"/>
<path id="Vector 19" d="M252 128C252 64 240 128 240 0H272C272 128 260 64 260 128H252Z" fill="#E7CE4F"/>
</g>
<g id="p-128-8-128">
<ellipse id="Ellipse 68_7" cx="256" cy="128" rx="64" ry="16" fill="#EDDBBC"/>
<path id="Vector 17_2" d="M192 128C192 112 252 120 252 0H260C260 120 320 112 320 128H192Z" fill="#EDDBBC"/>
<ellipse id="Ellipse 69_4" cx="256" rx="4" ry="1" fill="#EDDBBC"/>
</g>
<g id="p-128-8-32">
<ellipse id="Ellipse 65_2" cx="256" cy="128" rx="16" ry="4" fill="#ED6856"/>
<path id="Vector 20_2" d="M260 -1.04907e-06C260 64 272 0 272 128L240 128C240 -2.79753e-06 252 64 252 -1.74846e-06L260 -1.04907e-06Z" fill="#ED6856"/>
</g>
<g id="p-128-8-8">
<ellipse id="Ellipse 67_2" cx="256" cy="128" rx="4" ry="1" fill="#A2D550"/>
<rect id="Rectangle 10" x="252" width="8" height="128" fill="#A2D550"/>
</g>
<g id="p-114-256-256">
<path id="Vector 27" opacity="0.3" d="M284.903 60.2801C278.78 71.7702 269.386 87.4033 266.036 100.103C281.883 98.2344 318.401 61.4314 324.842 50.1279C332.893 35.9985 342.469 8.9191 325.599 0.778268C308.728 -7.36256 292.558 45.9175 284.903 60.2801Z" fill="white"/>
<path id="Vector 28_2" d="M274.74 112.774L277.082 107.946C347.96 104.498 409.292 82.5497 409.292 82.5497L412.076 83.8965L411.467 87.0315C411.467 87.0315 355.856 108.48 276.322 114.278L274.74 112.774Z" fill="#24A9F3"/>
<path id="Vector 30" opacity="0.3" d="M308.592 76.3286C298.353 84.3702 286.993 91.2112 274.365 103.784C312.325 103.623 337.191 89.0718 350.259 79.3935C363.328 69.7152 381.097 51.2028 368.947 36.9459C356.797 22.6889 321.392 66.2766 308.592 76.3286Z" fill="white"/>
<path id="Vector 29" d="M248.538 120.804L246.14 115.863L262.306 101.487L274.464 107.23L268.135 115.838L248.538 120.804Z" fill="#14CE9C"/>
<path id="Ellipse 9" d="M244.539 120.757C244.9 123.698 245.005 125.933 242.974 126.182C240.944 126.431 239.005 124.249 238.645 121.308C238.284 118.367 239.638 115.781 241.669 115.532C243.7 115.283 244.179 117.816 244.539 120.757Z" fill="#261C25"/>
</g>
<g id="p-112-64-32">
<ellipse id="Ellipse 75" cx="256" cy="112" rx="16" ry="4" transform="rotate(-180 256 112)" fill="#CAD1D6"/>
<path id="Vector 21_2" d="M288 0C288 112 272 56 272 112L240 112C240 56 224 112 224 -5.59506e-06L288 0Z" fill="#CAD1D6"/>
<ellipse id="Ellipse 74" cx="256" cy="-2.79753e-06" rx="32" ry="8" transform="rotate(-180 256 -2.79753e-06)" fill="#CAD1D6"/>
</g>
<g id="p-112-32-64">
<ellipse id="Ellipse 70_2" cx="256" cy="112" rx="32" ry="8" fill="#EDDBBC"/>
<path id="Vector 19_2" d="M224 112C224 0 240 56 240 0H272C272 56 288 0 288 112H224Z" fill="#EDDBBC"/>
<ellipse id="Ellipse 71_2" cx="256" rx="16" ry="4" fill="#EDDBBC"/>
</g>
<g id="p-96-128-32">
<path id="Ellipse 69_5" d="M272 96C272 98.2091 264.837 100 256 100C247.163 100 240 98.2091 240 96C240 93.7909 247.163 92 256 92C264.837 92 272 93.7909 272 96Z" fill="#83527B"/>
<path id="Vector 27_2" d="M243.5 98.5C241.5 98 192 80 192 0H320C320 80 270.5 98 268.5 98.5H243.5Z" fill="#83527B"/>
<ellipse id="Ellipse 68_8" cx="256" rx="64" ry="16" fill="#83527B"/>
</g>
<g id="p-96-32-128">
<ellipse id="Ellipse 64" cx="256" cy="96" rx="64" ry="16" fill="#ED6856"/>
<path id="Vector 2" d="M192 96.0003C192 48.0003 240 36.0003 240 0.000281228C240 0.000281228 240 4.3869e-05 272 0.000281228C272 36.0002 320 48.0003 320 96.0003H192Z" fill="#ED6856"/>
</g>
<g id="p-96-8-128">
<ellipse id="Ellipse 64_2" cx="256" cy="96" rx="64" ry="16" fill="#ED6856"/>
<path id="Vector 2_2" d="M192 96C192 49.5 252 42 252 0H260C260 42 320 49.5 320 96H192Z" fill="#ED6856"/>
</g>
<g id="p-64-128-64">
<ellipse id="Ellipse 66_2" cx="256" cy="64" rx="32" ry="8" fill="#187169"/>
<path id="Vector 21_3" d="M288 64C288 44.8 320 44.8 320 4.19617e-05L192 3.07716e-05C192 44.8 224 44.8 224 64L288 64Z" fill="#187169"/>
</g>
<g id="p-64-64-32">
<ellipse id="Ellipse 65_3" cx="256" cy="64" rx="16" ry="4" fill="#DE9C46"/>
<path id="Vector 23_2" d="M288 0L272 64H240L224 0H288Z" fill="#DE9C46"/>
</g>
<g id="p-64-64-8">
<ellipse id="Ellipse 68_9" cx="256" cy="64" rx="4" ry="1" fill="#ED6856"/>
<path id="Vector 19_3" d="M252 64C252 32 224 56 224 0H288C288 56 260 32 260 64H252Z" fill="#ED6856"/>
</g>
<g id="p-64-32-32">
<ellipse id="Ellipse 65_4" cx="256" cy="64" rx="16" ry="4" fill="#187169"/>
<rect id="Rectangle 45" x="240" width="32" height="64" fill="#187169"/>
<ellipse id="Ellipse 95" cx="256" rx="16" ry="4" fill="#187169"/>
</g>
<g id="p-64-8-32">
<ellipse id="Ellipse 67_3" cx="256" cy="64" rx="16" ry="4" fill="#EDDBBC"/>
<path id="Vector 22_2" d="M240 64C240 32 252 32 252 0H260C260 32 272 32 272 64H240Z" fill="#EDDBBC"/>
</g>
<g id="p-62-128-8">
<path id="Ellipse 51" d="M192 -1.11901e-05C192 8.40459 193.655 16.7269 196.872 24.4917C200.088 32.2566 204.802 39.3119 210.745 45.2548C216.688 51.1978 223.743 55.912 231.508 59.1283C239.273 62.3446 247.595 64 256 64C264.405 64 272.727 62.3446 280.492 59.1283C288.257 55.912 295.312 51.1978 301.255 45.2548C307.198 39.3119 311.912 32.2566 315.128 24.4917C318.345 16.7269 320 8.40459 320 -7.62939e-06L192 -1.11901e-05Z" fill="#E0E0E0"/>
</g>
<g id="p-62-8-128">
<ellipse id="Ellipse 64_3" cx="256" cy="62" rx="64" ry="16" fill="#ED6856"/>
<path id="Ellipse 49" d="M320 62C320 53.5954 318.345 45.2731 315.128 37.5083C311.912 29.7434 307.198 22.6881 301.255 16.7452C295.312 10.8022 288.257 6.08801 280.492 2.87171C272.727 -0.344592 264.405 -2 256 -2C247.595 -2 239.273 -0.34459 231.508 2.87171C223.743 6.08801 216.688 10.8022 210.745 16.7452C204.802 22.6881 200.088 29.7434 196.872 37.5083C193.655 45.2731 192 53.5954 192 62L320 62Z" fill="#ED6856"/>
</g>
<g id="p-48-128-128">
<ellipse id="Ellipse 64_4" cx="256" cy="48" rx="64" ry="16" fill="#EDDBBC"/>
<rect id="Rectangle 49" x="192" width="128" height="48" fill="#EDDBBC"/>
</g>
<g id="p-48-32-8">
<ellipse id="Ellipse 67_4" cx="256" cy="48" rx="4" ry="1" fill="#83527B"/>
<path id="Vector 29_2" d="M252 48C252 40 240 32 240 0H272C272 32 260 40 260 48H252Z" fill="#83527B"/>
<ellipse id="Ellipse 69_6" cx="256" rx="16" ry="4" fill="#83527B"/>
</g>
<g id="p-32-128-128">
<ellipse id="Ellipse 64_5" cx="256" cy="32" rx="64" ry="16" fill="#E96374"/>
<rect id="Rectangle 48" x="192" width="128" height="32" fill="#E96374"/>
</g>
<g id="p-32-128-8">
<ellipse id="Ellipse 68_10" cx="256" cy="32" rx="4" ry="1" fill="#8E4D3C"/>
<path id="Vector 26" d="M252 32C252 16 192 24 192 0H320C320 24 260 16 260 32H252Z" fill="#8E4D3C"/>
<ellipse id="Ellipse 69_7" cx="256" rx="64" ry="16" fill="#8E4D3C"/>
</g>
<g id="p-32-64-128">
<ellipse id="Ellipse 64_6" cx="256" cy="32" rx="64" ry="16" fill="#92C091"/>
<path id="Vector 21_4" d="M224 0C224 9.6 192 9.6 192 32H320C320 9.6 288 9.6 288 0H224Z" fill="#92C091"/>
</g>
<g id="p-32-64-64">
<ellipse id="Ellipse 66_3" cx="256" cy="32" rx="32" ry="8" fill="#DE9C46"/>
<rect id="Rectangle 50" x="224" width="64" height="32" fill="#DE9C46"/>
</g>
<g id="p-32-32-128">
<ellipse id="Ellipse 64_7" cx="256" cy="32" rx="64" ry="16" fill="#92C091"/>
<path id="Vector 21_5" d="M240 0C240 16 192 6 192 32H320C320 6 272 16 272 0H240Z" fill="#92C091"/>
</g>
<g id="p-32-32-32">
<ellipse id="Ellipse 65_5" cx="256" cy="32" rx="16" ry="4" fill="#EDDBBC"/>
<rect id="Rectangle 46" x="240" width="32" height="32" fill="#EDDBBC"/>
<ellipse id="Ellipse 96" cx="256" rx="16" ry="4" fill="#EDDBBC"/>
</g>
<g id="p-32-8-64">
<ellipse id="Ellipse 66_4" cx="256" cy="32" rx="32" ry="8" fill="#ED6856"/>
<path id="Vector 8" d="M224 32C224 16.9057 252 9.0566 251.999 0H259.999C259.999 9.0566 288 16.9057 288 32H224Z" fill="#ED6856"/>
</g>
<g id="p-32-8-8">
<ellipse id="Ellipse 81" cx="256" cy="32" rx="4" ry="1" fill="#DE9C46"/>
<rect id="Rectangle 10_2" x="252" width="8" height="32" fill="#DE9C46"/>
</g>
<g id="p-16-128-128">
<ellipse id="Ellipse 68_11" cx="256" cy="16" rx="64" ry="16" fill="#187169"/>
<rect id="Rectangle 52" x="192" width="128" height="16" fill="#187169"/>
<ellipse id="Ellipse 69_8" cx="256" rx="64" ry="16" fill="#187169"/>
<g id="Group 9">
<path id="K" d="M298.523 24.395L299.62 24.0856V21.0856L300.995 19.366L303.975 22.8576L305.361 22.4667L301.746 18.3742L305.222 13.9378L303.801 14.3384L299.62 19.7896V15.5176L298.523 15.827V24.395Z" fill="#CAD1D6"/>
<path id="R" d="M290.134 25.9939L291.255 25.7862V22.1262L293.992 21.6188C295.078 21.4176 295.267 22.1026 295.396 22.9066C295.562 23.716 295.385 24.6728 295.703 24.9617L296.954 24.7299C296.482 24.2414 296.517 23.2748 296.458 22.4578C296.364 21.6473 296.175 20.9382 295.196 20.9278V20.9038C296.222 20.4255 296.659 19.5046 296.659 18.4606C296.659 17.0806 295.691 16.3959 294.099 16.6911L290.134 17.4259V25.9939ZM291.255 21.1662V18.1782L294.04 17.6621C295.09 17.4674 295.538 17.9963 295.538 18.8483C295.538 20.0963 294.629 20.5407 293.591 20.7332L291.255 21.1662Z" fill="#CAD1D6"/>
<path id="A" d="M280.974 27.3203L282.137 27.1516L283.087 24.4338L286.674 23.9138L287.6 26.3595L288.847 26.1787L285.534 18.0911L284.287 18.2719L280.974 27.3203ZM283.444 23.4222L284.881 19.2178L284.904 19.2144L286.318 23.0055L283.444 23.4222Z" fill="#CAD1D6"/>
<path id="P" d="M274.197 27.8283L275.332 27.724V24.22L277.937 23.9806C279.646 23.8356 280.554 22.8042 280.554 21.2082C280.554 19.6121 279.646 18.7596 277.937 18.9166L274.197 19.2603V27.8283ZM275.332 20.116L277.555 19.9118C278.846 19.7932 279.419 20.2925 279.419 21.3125C279.419 22.3325 278.846 22.9492 277.555 23.0558L275.332 23.26V20.116Z" fill="#CAD1D6"/>
<path id="N" d="M260.61 28.5198L261.689 28.4774V21.6014L261.713 21.6004L266.186 28.3007L267.433 28.2517V19.6837L266.353 19.7261V26.6741L266.329 26.6751L261.821 19.9042L260.61 19.9518V28.5198Z" fill="#CAD1D6"/>
<path id="O" d="M250.998 24.3246C250.998 26.6646 252.378 28.8126 255.102 28.8126C257.826 28.8126 259.206 26.6646 259.206 24.3246C259.206 21.9846 257.826 19.8366 255.102 19.8366C252.378 19.8366 250.998 21.9846 250.998 24.3246ZM252.138 24.3246C252.138 22.5966 253.014 20.7966 255.102 20.7966C257.19 20.7966 258.066 22.5966 258.066 24.3246C258.066 26.0526 257.19 27.8526 255.102 27.8526C253.014 27.8526 252.138 26.0526 252.138 24.3246Z" fill="#CAD1D6"/>
<path id="I" d="M248.083 28.5002L249.223 28.5301V19.9621L248.083 19.9322V28.5002Z" fill="#CAD1D6"/>
<path id="T" d="M242.114 28.3093L243.253 28.3689V20.7609L246.105 20.9104V19.9504L239.262 19.5918V20.5518L242.114 20.7013V28.3093Z" fill="#CAD1D6"/>
<path id="I_2" d="M236.216 27.9163L237.353 27.9909V19.4229L236.216 19.3483V27.9163Z" fill="#CAD1D6"/>
<path id="U" d="M234.048 19.1727L232.914 19.0536V24.5256C232.914 26.0496 232.138 26.784 230.694 26.6322C229.179 26.4729 228.331 25.5679 228.331 24.0439V18.5719L227.198 18.4527V23.9247C227.198 26.2047 228.499 27.3614 230.694 27.5922C232.831 27.8168 234.048 26.8167 234.048 24.6447V19.1727Z" fill="#CAD1D6"/>
<path id="T_2" d="M222.075 26.3126L223.203 26.4761V18.8681L226.03 19.278V18.318L219.249 17.3347V18.2947L222.075 18.7046V26.3126Z" fill="#CAD1D6"/>
<path id="N_2" d="M211.28 24.2473L212.336 24.4718V17.5958L212.36 17.6008L216.738 25.4074L217.959 25.6669V17.0989L216.902 16.8743V23.8223L216.879 23.8173L212.465 15.9313L211.28 15.6793V24.2473Z" fill="#CAD1D6"/>
<path id="I_3" d="M207.902 23.418L208.999 23.7274V15.1594L207.902 14.85V23.418Z" fill="#CAD1D6"/>
</g>
</g>
<g id="p-16-64-64">
<ellipse id="Ellipse 66_5" cx="256" cy="16" rx="32" ry="8" fill="#A2D550"/>
<rect id="Rectangle 47" x="224" width="64" height="16" fill="#A2D550"/>
</g>
<g id="p-16-8-8">
<ellipse id="Ellipse 67_5" cx="256" cy="16" rx="4" ry="1" fill="#E96374"/>
<rect id="Rectangle 51" x="252" width="8" height="16" fill="#E96374"/>
</g>
<g id="p-8-8-8">
<ellipse id="Ellipse 71_3" cx="256" cy="8" rx="4" ry="1" fill="#E7CE4F"/>
<rect id="Rectangle 54" x="252" width="8" height="8" fill="#E7CE4F"/>
<ellipse id="Ellipse 70_3" cx="256" rx="4" ry="1" fill="#E7CE4F"/>
</g>
<g id="p-4-128-128">
<ellipse id="Ellipse 69_9" cx="256" cy="4" rx="64" ry="16" fill="#202020"/>
<rect id="Rectangle 33" x="192" width="128" height="4" fill="#202020"/>
</g>
<g id="p-4-64-64">
<ellipse id="Ellipse 66_6" cx="256" cy="4" rx="32" ry="8" fill="#202020"/>
<rect id="Rectangle 34" x="224" width="64" height="4" fill="#202020"/>
</g>
<g id="p-4-32-32">
<ellipse id="Ellipse 67_6" cx="256" cy="4" rx="16" ry="4" fill="#202020"/>
<rect id="Rectangle 35" x="240" width="32" height="4" fill="#202020"/>
<ellipse id="Ellipse 68_12" cx="256" rx="16" ry="4" fill="#202020"/>
</g>
<g id="p-4-8-8">
<ellipse id="Ellipse 68_13" cx="256" cy="4" rx="4" ry="1" fill="#202020"/>
<rect id="Rectangle 36" x="252" width="8" height="4" fill="#202020"/>
</g>
<g id="p-132-0-8">
<ellipse id="Ellipse 67_7" cx="256" cy="132" rx="4" ry="1" fill="#E96374"/>
<rect id="Rectangle 26" x="260" y="132" width="8" height="128" transform="rotate(-180 260 132)" fill="#E96374"/>
<path id="Ellipse 40" d="M260 4.00006C260 2.9392 259.579 1.92178 258.828 1.17164C258.078 0.42149 257.061 6.19445e-05 256 6.14007e-05C254.939 6.08569e-05 253.922 0.421487 253.172 1.17163C252.421 1.92178 252 2.93919 252 4.00006L260 4.00006Z" fill="#E96374"/>
</g>
<g id="p-80-0-8">
<ellipse id="Ellipse 68_14" cx="256" cy="80" rx="4" ry="1" fill="#E96374"/>
<path id="Vector 10" d="M246 32C246 6 248.5 0 256 0C263.5 0 266 6 266 32C266 48 260 64 260 80H252C252 64 246 48 246 32Z" fill="#E96374"/>
</g>
<g id="p-64-0-64">
<ellipse id="Ellipse 68_15" cx="256" cy="64" rx="32" ry="8" fill="#ED6856"/>
<path id="Vector 30_2" d="M224 64C224 32 240 0 256 0C272 0 288 32 288 64H224Z" fill="#ED6856"/>
</g>
<g id="p-32-0-64">
<ellipse id="Ellipse 71_4" cx="256" cy="32" rx="32" ry="8" fill="#ED6856"/>
<path id="Ellipse 86" d="M288 32C288 27.7977 287.172 23.6365 285.564 19.7541C283.956 15.8717 281.599 12.3441 278.627 9.37258C275.656 6.40111 272.128 4.04401 268.246 2.43585C264.363 0.827704 260.202 -1.83688e-07 256 0C251.798 1.83688e-07 247.637 0.827705 243.754 2.43586C239.872 4.04401 236.344 6.40111 233.373 9.37258C230.401 12.3441 228.044 15.8717 226.436 19.7541C224.828 23.6366 224 27.7977 224 32L288 32Z" fill="#ED6856"/>
</g>
<g id="p-36-0-8">
<ellipse id="Ellipse 68_16" cx="256" cy="36" rx="4" ry="1" fill="#E96374"/>
<rect id="Rectangle 24" x="260" y="36" width="8" height="32" transform="rotate(-180 260 36)" fill="#E96374"/>
<path id="Ellipse 38" d="M260 4.00006C260 2.9392 259.579 1.92178 258.828 1.17164C258.078 0.42149 257.061 6.19445e-05 256 6.14007e-05C254.939 6.08569e-05 253.922 0.421487 253.172 1.17163C252.421 1.92178 252 2.93919 252 4.00006L260 4.00006Z" fill="#E96374"/>
</g>
<g id="p-16-0-32">
<ellipse id="Ellipse 65_6" cx="256" cy="16" rx="16" ry="4" fill="#ED6856"/>
<path id="Ellipse 69_10" d="M272 16C272 11.7565 270.314 7.68687 267.314 4.68629C264.313 1.68571 260.243 3.20373e-07 256 0C251.757 -3.20373e-07 247.687 1.68571 244.686 4.68629C241.686 7.68687 240 11.7565 240 16L272 16Z" fill="#ED6856"/>
</g>
<g id="p-0-0-0">
<ellipse id="waterCircle3" cx="256" cy="0" rx="4" ry="2" fill="none" stroke="white" opacity="0.5"/>
<ellipse id="waterCircle2" cx="256" cy="0" rx="4" ry="2" fill="none" stroke="white"/>
<ellipse id="waterCircle" cx="256" cy="0" rx="4" ry="2" fill="none" stroke="white"/>
</g>
</g>
<defs>
<clipPath id="clip0">
<rect width="726" height="11098" fill="white"/>
</clipPath>
</defs>
</svg>
