<svg width="726" height="11098" viewBox="0 0 726 11098" fill="none" xmlns="http://www.w3.org/2000/svg">
<rect width="726" height="11098" fill="black"/>
<g id="floats" clip-path="url(#clip0)">
<rect width="726" height="11098" fill="white"/>
<g id="p-512-8-0">
<circle id="Ellipse 92" cx="256" cy="512" r="2" fill="#202020"/>
<rect id="Rectangle 56" x="254" width="4" height="512" fill="#202020"/>
<ellipse id="515" cx="256" cy="504" rx="4" ry="1" fill="#202020"/>
<rect id="Rectangle 58" x="252" y="480" width="8" height="24" fill="#202020"/>
<ellipse id="516" cx="256" cy="480" rx="4" ry="1" fill="#202020"/>
<ellipse id="514" cx="256" cy="64" rx="4" ry="1" fill="#202020"/>
<rect id="Rectangle 57" x="252" width="8" height="64" fill="#202020"/>
<ellipse id="513" cx="256" rx="4" ry="1" fill="#202020"/>
</g>
<g id="p-384-8-0">
<circle id="Ellipse 93" cx="256" cy="384" r="4" fill="#202020"/>
<rect id="Rectangle 28" x="252" width="8" height="384" fill="#202020"/>
</g>
<g id="p-256-8-0">
<circle id="Ellipse 94" cx="256" cy="256" r="4" fill="#202020"/>
<rect id="Rectangle 27" x="252" width="8" height="256" fill="#202020"/>
</g>
<g id="P-256-128-8">
<ellipse id="Ellipse 68" cx="256" cy="256" rx="4" ry="1" fill="#202020"/>
<path id="Vector 17" d="M320 0C320 132 260 240 260 256L252 256C252 240 192 132.5 192 -3.35703e-05L320 0Z" fill="#202020"/>
</g>
<g id="p-256-64-128">
<ellipse id="Ellipse 71" cx="256" cy="256" rx="64" ry="16" fill="#EDDBBC"/>
<path id="Vector 31" d="M192 256C192 128 224 128 224 0H288C288 128 320 128 320 256H192Z" fill="#EDDBBC"/>
<ellipse id="Ellipse 72" cx="256" rx="32" ry="8" fill="#EDDBBC"/>
</g>
<g id="p-256-32-32">
<ellipse id="Ellipse 70" cx="256" cy="256" rx="16" ry="4" fill="#DE9C46"/>
<rect id="Rectangle 55" x="240" width="32" height="256" fill="#DE9C46"/>
<ellipse id="Ellipse 71_2" cx="256" rx="16" ry="4" fill="#DE9C46"/>
</g>
<g id="p-256-32-8">
<ellipse id="514_2" cx="256" cy="256" rx="4" ry="1" fill="#202020"/>
<path id="Vector 32" d="M252 256C252 192 240 68 240 0H272C272 68 260 192 260 256H252Z" fill="#202020"/>
<ellipse id="513_2" cx="256" rx="16" ry="4" fill="#202020"/>
</g>
<g id="p-254-64-8">
<path id="Vector 23" d="M255.999 256H256H256.001C260.001 256 263 256 264 254C266 249 288 31.9995 288 -0.000457764H224C224 31.9995 246 249 248 254C249 256 251.999 256 255.999 256Z" fill="#187169"/>
<ellipse id="Ellipse 69" rx="32" ry="8" transform="matrix(1 0 0 -1 256 0)" fill="#187169"/>
</g>
<g id="p-254-8-64">
<ellipse id="Ellipse 68_2" cx="256" cy="254" rx="32" ry="8" fill="#187169"/>
<path id="Vector 22" d="M255.999 -1.99982H256H256.001C260.001 -1.99982 263 -1.99982 264 0.000183344C266 5 288 222 288 254H224C224 222 246 5.00002 248 0.000183344C249 -1.99982 251.999 -1.99982 255.999 -1.99982Z" fill="#187169"/>
</g>
<g id="p-192-8-32">
<ellipse id="513_3" cx="256" cy="192" rx="16" ry="4" fill="#202020"/>
<path id="Vector 33" d="M240 192C240 64 252 64 252 0H260C260 64 272 64 272 192H240Z" fill="#202020"/>
<ellipse id="514_3" cx="256" rx="4" ry="1" fill="#202020"/>
</g>
<g id="p-128-128-64">
<ellipse id="Ellipse 66" cx="256" cy="128" rx="32" ry="8" fill="#8E4D3C"/>
<path id="Vector 28" d="M192 16V0H320L320 16C320 32 288 96 288 112V128H224V112C224 96 192 32 192 16Z" fill="#8E4D3C"/>
<ellipse id="Ellipse 68_3" cx="256" rx="64" ry="16" fill="#8E4D3C"/>
</g>
<g id="p-128-128-32">
<ellipse id="Ellipse 65" cx="256" cy="128" rx="16" ry="4" fill="#92C091"/>
<path id="Vector 21" d="M272 128C272 96 320 48 320 -1.52588e-05L192 -4.06867e-06C192 48 240 96 240 128L272 128Z" fill="#92C091"/>
</g>
<g id="p-128-128-8">
<ellipse id="Ellipse 68_4" cx="256" cy="128" rx="4" ry="1" fill="#EDDBBC"/>
<path id="Vector 3" d="M192 0C192 58.6404 252 82.2069 252 128H260C260 82.2069 320 59.2709 320 0H192Z" fill="#EDDBBC"/>
</g>
<g id="p-128-64-128">
<ellipse id="Ellipse 68_5" cx="256" cy="128" rx="64" ry="16" fill="#E7CE4F"/>
<path id="Vector 25" d="M192 128C192 96 224 80 224 0H288C288 80 320 96 320 128H192Z" fill="#E7CE4F"/>
<ellipse id="Ellipse 69_2" cx="256" rx="32" ry="8" fill="#E7CE4F"/>
</g>
<g id="p-128-64-32">
<ellipse id="Ellipse 73" cx="256" cy="128" rx="16" ry="4" transform="rotate(-180 256 128)" fill="#CAD1D6"/>
<path id="Vector 20" d="M288 0C288 48 272 80 272 128L240 128C240 80 224 48 224 -5.59506e-06L288 0Z" fill="#CAD1D6"/>
<ellipse id="Ellipse 72_2" cx="256" cy="-2.79753e-06" rx="32" ry="8" transform="rotate(-180 256 -2.79753e-06)" fill="#CAD1D6"/>
</g>
<g id="p-128-32-64">
<ellipse id="Ellipse 69_3" cx="256" cy="128" rx="32" ry="8" fill="#92C091"/>
<path id="Vector 18" d="M224 128C224 80 240 48 240 0H272C272 48 288 80 288 128H224Z" fill="#92C091"/>
<ellipse id="Ellipse 68_6" cx="256" rx="16" ry="4" fill="#92C091"/>
</g>
<g id="p-128-32-8">
<ellipse id="Ellipse 67" cx="256" cy="128" rx="4" ry="1" fill="#E7CE4F"/>
<path id="Vector 19" d="M252 128C252 64 240 128 240 0H272C272 128 260 64 260 128H252Z" fill="#E7CE4F"/>
</g>
<g id="p-128-8-128">
<ellipse id="Ellipse 68_7" cx="256" cy="128" rx="64" ry="16" fill="#EDDBBC"/>
<path id="Vector 17_2" d="M192 128C192 112 252 120 252 0H260C260 120 320 112 320 128H192Z" fill="#EDDBBC"/>
<ellipse id="Ellipse 69_4" cx="256" rx="4" ry="1" fill="#EDDBBC"/>
</g>
<g id="p-128-8-32">
<ellipse id="Ellipse 65_2" cx="256" cy="128" rx="16" ry="4" fill="#ED6856"/>
<path id="Vector 20_2" d="M260 -1.04907e-06C260 64 272 0 272 128L240 128C240 -2.79753e-06 252 64 252 -1.74846e-06L260 -1.04907e-06Z" fill="#ED6856"/>
</g>
<g id="p-128-8-8">
<ellipse id="Ellipse 67_2" cx="256" cy="128" rx="4" ry="1" fill="#AAD564"/>
<rect id="Rectangle 10" x="252" width="8" height="128" fill="#AAD564"/>
</g>
<g id="p-114-256-256">
<path id="Vector 24" d="M231.437 86.9062C234.211 88.2339 234.342 92.6704 234.211 94.2566C233.831 98.8795 231.437 104.449 227.717 103.272C223.704 102.003 224.106 96.178 224.378 92.8785C224.77 88.1199 228.735 85.6133 231.437 86.9062Z" fill="#345471"/>
<path id="Vector 8" d="M255.387 113.003C253.917 109.682 250.907 103.58 248.426 100.871L253.828 112.417C254.038 112.865 253.886 113.398 253.475 113.677C248.511 117.042 243.041 121.593 243.041 121.593C243.041 121.593 251.625 116.514 255.05 114.188C255.437 113.925 255.576 113.429 255.387 113.003Z" fill="#181818"/>
<path id="Vector 9" d="M264.717 111.961C261.986 108.91 256.409 103.16 252.899 101.231L262.481 111.935C262.752 112.237 262.813 112.672 262.641 113.039C259.636 119.457 257.191 127.832 257.191 127.832C257.191 127.832 262.931 117.236 264.879 113.008C265.041 112.656 264.975 112.25 264.717 111.961Z" fill="#181818"/>
<path id="Vector 10" d="M275.871 110.232C273.084 107.665 267.581 103 264.111 101.474L273.534 110.457C273.861 110.769 273.939 111.259 273.731 111.659C270.819 117.267 268.587 124.291 268.587 124.291C268.587 124.291 274.093 115.197 276.079 111.388C276.281 111 276.194 110.529 275.871 110.232Z" fill="#181818"/>
<path id="Vector 6" d="M295.023 103.401C287.212 102.707 268.098 102.244 259.518 102.1L295.023 93.4253C328.605 98.0516 382.01 106.003 393.993 107.738C397.744 108.281 389.999 113.81 387.336 113.81C385.206 113.81 379.643 111.497 378.016 110.774L295.023 103.401Z" fill="#EBED99"/>
<g id="Mask Group">
<mask id="mask0" mask-type="alpha" maskUnits="userSpaceOnUse" x="259" y="93" width="136" height="21">
<path id="Vector 20_3" d="M295.023 103.401C287.212 102.707 268.098 102.244 259.518 102.1L295.023 93.4253C328.605 98.0516 382.01 106.003 393.993 107.738C397.744 108.281 389.999 113.81 387.336 113.81C385.206 113.81 379.643 111.497 378.016 110.774L295.023 103.401Z" fill="#EBED99"/>
</mask>
<g mask="url(#mask0)">
<g id="Vector 19_2">
<path d="M314.643 107.208C314.617 107.211 314.591 107.213 314.566 107.216C314.591 107.213 314.617 107.211 314.643 107.208C316.244 107.036 319.934 106.26 322.508 104.436C325.124 102.583 326.713 98.7223 327.18 97.0236H332.786C332.786 98.1046 332.319 100.822 330.45 103.046C328.592 105.258 319.189 106.736 314.643 107.208Z" fill="#00818A"/>
<path d="M336.524 109.069C341.663 106.289 343.531 104.436 343.064 99.34L350.539 97.9501C350.383 99.0311 349.511 102.027 347.269 105.363C344.466 109.532 331.385 111.849 336.524 109.069Z" fill="#00818A"/>
<path d="M357.547 105.363C353.435 107.957 352.096 109.532 351.94 109.996V112.775C353.809 111.54 359.602 108.513 367.825 106.289C376.047 104.065 382.463 103.201 384.643 103.046C377.324 102.737 361.658 102.768 357.547 105.363Z" fill="#00818A"/>
<path d="M379.971 109.996C375.486 111.478 372.496 111.231 371.562 110.922C372.185 111.54 373.991 112.775 376.234 112.775C379.037 112.775 380.906 112.775 384.643 110.922C387.633 109.44 392.741 108.451 394.921 108.142C391.806 108.142 384.456 108.513 379.971 109.996Z" fill="#00818A"/>
</g>
</g>
</g>
<path id="Vector 15" d="M295.023 103.401C287.212 102.707 268.098 102.244 259.518 102.1L295.023 93.4253C304.65 94.7736 310.73 95.6098 314.566 96.1652C316.902 96.5034 314.566 100.267 312.23 102.12C309.894 103.973 302.834 104.095 295.023 103.401Z" fill="#216583"/>
<path id="Vector 14" d="M295.023 103.401C295.023 103.401 268.098 102.244 259.518 102.1L295.023 93.4253C299.518 94.0446 304.369 94.7234 309.427 95.4389C309.427 95.4389 308.96 97.9501 306.624 100.267C304.288 102.583 295.023 103.401 295.023 103.401Z" fill="#EBED99"/>
<path id="Vector 5" d="M233.277 103.973C231.708 102.967 231.332 100.683 231.488 99.9112L232.422 95.2784C242.388 88.0203 264.844 73.8746 274.935 75.3572C283.316 76.5884 293.565 86.639 299.743 93.9915C301.228 95.7593 300.108 98.3839 297.814 98.6447C273.943 101.358 235.81 105.595 233.277 103.973Z" fill="#00818A"/>
<ellipse id="Ellipse 6" rx="12.8257" ry="0.759367" transform="matrix(0.901284 -0.433228 0.439142 0.898418 253.732 87.6117)" fill="#2AA3AB"/>
<g id="Mask Group_2">
<mask id="mask1" mask-type="alpha" maskUnits="userSpaceOnUse" x="231" y="75" width="70" height="30">
<path id="Vector 18_2" d="M233.277 103.973C231.708 102.967 231.332 100.683 231.488 99.9112L232.422 95.2784C242.388 88.0203 264.844 73.8746 274.935 75.3572C283.316 76.5884 293.565 86.639 299.743 93.9915C301.228 95.7593 300.108 98.3839 297.814 98.6447C273.943 101.358 235.81 105.595 233.277 103.973Z" fill="#00818A"/>
</mask>
<g mask="url(#mask1)">
<g id="Vector 17_3">
<path d="M246.863 91.0866C242.705 88.631 238.444 89.2384 236.833 89.849L247.232 82.6822C249.672 84.3106 254.944 88.8201 256.509 93.8306C258.075 98.8411 256.097 103.881 254.913 105.774C253.962 101.902 251.022 93.5421 246.863 91.0866Z" fill="#F7BE16"/>
<path d="M266.066 88.6965C263.681 83.3518 257.337 80.4647 254.464 79.6893C263.854 79.0025 271.321 85.8483 271.649 90.2594C271.845 92.8977 268.492 97.6134 265.502 101.155C268.605 100.567 275.501 97.9608 278.256 92.2401C281.7 85.0892 282.891 81.0598 282.105 77.1749C281.319 73.2901 287.594 84.1653 284.681 91.7702C282.351 97.8541 279.229 100.875 277.96 101.625L265.502 101.155C264.492 102.351 263.524 103.413 262.748 104.216C264.848 101.27 268.451 94.0413 266.066 88.6965Z" fill="#F7BE16"/>
</g>
<g id="Vector 16">
<path d="M248.358 89.9296C244.406 87.2253 240.124 87.5151 238.477 87.998L249.346 81.7203C251.652 83.491 256.559 88.2877 257.745 93.3098C258.931 98.332 256.592 103.129 255.275 104.899C254.616 101.036 252.311 92.6338 248.358 89.9296Z" fill="#216583"/>
<path d="M267.626 88.9638C265.65 83.5553 259.557 80.2716 256.757 79.3059C266.144 79.3059 273.06 86.5493 273.06 90.8954C273.06 93.4947 269.379 97.8755 266.144 101.132C269.273 100.778 276.321 98.7183 279.483 93.3098C283.435 86.5493 284.918 82.6861 284.423 78.823C283.929 74.9598 289.364 86.0664 285.906 93.3098C283.139 99.1046 279.812 101.841 278.495 102.485L266.144 101.132C265.052 102.231 264.011 103.202 263.18 103.934C265.485 101.197 269.602 94.3722 267.626 88.9638Z" fill="#216583"/>
</g>
</g>
</g>
<path id="Vector 3_2" d="M220.891 103.661C223.421 105.658 224.995 105.037 227.254 104.646L224.66 99.1798C222.561 100.008 218.868 102.064 220.891 103.661Z" fill="#00818A"/>
<path id="Vector 4" d="M220.331 101.228C220.691 98.8709 222.009 97.9392 223.607 96.4592L225.243 99.8592C223.486 101.101 220.043 103.115 220.331 101.228Z" fill="#EBED99"/>
<path id="Vector 1" d="M230.502 89.2099C233.277 90.5375 233.408 94.9741 233.277 96.5602C232.896 101.183 230.502 106.752 226.783 105.576C222.769 104.307 223.172 98.4816 223.443 95.1822C223.835 90.4236 227.8 87.917 230.502 89.2099Z" fill="#293462"/>
<path id="Vector 2" d="M225.909 93.5082C225.642 94.6499 225.943 95.5214 226.128 95.8145L227.595 91.49C227.144 91.687 226.176 92.3665 225.909 93.5082Z" fill="#B7D24B"/>
<path id="Vector 22_2" d="M365.022 43.7458L343.531 46.0623L357.547 46.9888L346.802 58.1077L365.022 43.7458Z" fill="#02838C"/>
<path id="Vector 21_2" d="M277.192 73.8593C279.528 72.9327 312.062 60.4241 313.632 64.5936C315.201 68.7632 280.714 73.1453 277.192 73.8593Z" fill="#EBED99"/>
<path id="Vector 23_2" d="M336.057 54.8646C334.935 52.6409 326.246 53.6292 322.041 54.4013C327.18 52.7026 337.832 50.3244 339.327 54.4013C340.822 58.4782 335.901 61.0417 333.253 61.8139C334.655 60.424 337.178 57.0884 336.057 54.8646Z" fill="#293462"/>
<path id="Vector" d="M262.396 77.9631L262.012 77.6434L261.006 78.8529L262.525 78.4461L262.396 77.9631ZM359.193 0.012718L359.213 -0.486915L359.213 -0.486915L359.193 0.012718ZM378.79 40.4975L378.424 40.1569L378.79 40.4975ZM335.122 42.1711L334.692 42.4267L334.692 42.4267L335.122 42.1711ZM291.067 51.9093L291.351 52.321L291.351 52.321L291.067 51.9093ZM262.831 77.4697L262.489 77.1046L262.96 77.9529L262.831 77.4697ZM318.304 40.9661L318.105 40.5074L318.47 41.4377L318.304 40.9661ZM384.176 25.2145L384.445 25.6359C384.635 25.5143 384.721 25.2804 384.653 25.065C384.586 24.8496 384.382 24.7061 384.157 24.7149L384.176 25.2145ZM357.547 46.9888L357.906 47.3366L358.697 46.5196L357.56 46.489L357.547 46.9888ZM359.415 38.7494L359.196 38.3001L359.415 38.7494ZM375.767 36.7966L376.161 37.1043L376.9 36.1577L375.707 36.3001L375.767 36.7966ZM381.84 12.2425L381.399 12.478L381.399 12.478L381.84 12.2425ZM262.781 78.2828C273.738 65.1066 291.723 45.401 310.058 29.1132C319.227 20.9686 328.47 13.6896 336.957 8.50881C345.464 3.31606 353.133 0.280792 359.174 0.512351L359.213 -0.486915C352.86 -0.730412 344.975 2.44317 336.436 7.65527C327.878 12.8794 318.585 20.2012 309.394 28.3656C291.012 44.6956 272.992 64.4402 262.012 77.6434L262.781 78.2828ZM359.174 0.512351C366.837 0.806087 372.343 2.9024 376.18 5.97673C380.017 9.05071 382.223 13.134 383.234 17.4726C384.245 21.8161 384.055 26.4079 383.098 30.4651C382.139 34.529 380.422 38.0111 378.424 40.1569L379.156 40.8382C381.306 38.5289 383.085 34.8714 384.071 30.6947C385.058 26.5112 385.259 21.7614 384.208 17.2458C383.155 12.7255 380.844 8.43242 376.806 5.19635C372.767 1.96061 367.041 -0.186832 359.213 -0.486915L359.174 0.512351ZM378.424 40.1569C373.308 45.6533 365.966 50.0888 357.181 53.8109C348.399 57.5315 338.206 60.5262 327.417 63.1578C316.627 65.7894 305.259 68.0538 294.124 70.3193C282.993 72.5836 272.095 74.8491 262.267 77.4801L262.525 78.4461C272.32 75.824 283.19 73.5641 294.323 71.2992C305.451 69.0353 316.841 66.7666 327.654 64.1294C338.465 61.4922 348.717 58.4826 357.571 54.7317C366.421 50.9823 373.906 46.4792 379.156 40.8382L378.424 40.1569ZM307.732 31.2556C310.129 29.4824 313.592 27.0193 317.007 25.6217C320.455 24.2106 323.61 23.9766 325.663 26.248L326.405 25.5775C323.889 22.7947 320.14 23.2592 316.628 24.6962C313.084 26.1466 309.531 28.681 307.137 30.4517L307.732 31.2556ZM325.663 26.248C326.689 27.3832 326.954 28.6615 326.702 30.0284C326.444 31.421 325.644 32.9114 324.514 34.3913C322.256 37.3481 318.799 40.1129 316.296 41.7529L316.844 42.5894C319.398 40.9158 322.957 38.0786 325.309 34.9981C326.484 33.4594 327.387 31.8224 327.685 30.2104C327.988 28.5728 327.662 26.9694 326.405 25.5775L325.663 26.248ZM316.784 42.623C319.196 41.4803 322.927 40.0725 326.455 39.6542C330.014 39.2322 333.15 39.8338 334.692 42.4267L335.552 41.9156C333.688 38.7816 329.985 38.2286 326.338 38.6611C322.66 39.0973 318.818 40.5529 316.355 41.7193L316.784 42.623ZM334.692 42.4267C335.051 43.0304 335.128 43.6311 334.995 44.2415C334.858 44.867 334.495 45.526 333.934 46.2054C332.808 47.5683 330.978 48.9024 329.008 50.0831C327.048 51.2582 324.991 52.2573 323.446 52.9608C322.675 53.3122 322.033 53.589 321.596 53.7769C321.379 53.8701 321.207 53.9437 321.097 53.9928C321.046 54.0156 320.993 54.04 320.954 54.0608C320.943 54.0664 320.927 54.0757 320.908 54.0875C320.906 54.089 320.843 54.1265 320.787 54.1934C320.774 54.2096 320.65 54.3506 320.673 54.5679C320.705 54.8614 320.944 54.9675 321.016 54.9912C321.095 55.0171 321.161 55.0164 321.18 55.0162C321.207 55.0159 321.23 55.0134 321.242 55.0118L321.114 54.02C321.124 54.0188 321.143 54.0165 321.169 54.0163C321.184 54.0161 321.249 54.0152 321.327 54.0407C321.398 54.064 321.637 54.1695 321.668 54.4622C321.691 54.6788 321.568 54.8188 321.555 54.8338C321.522 54.8736 321.49 54.8986 321.479 54.9071C321.465 54.9184 321.453 54.9262 321.447 54.9301C321.434 54.938 321.426 54.9424 321.426 54.9424C321.425 54.943 321.43 54.9402 321.446 54.9327C321.461 54.9258 321.48 54.9169 321.505 54.9058C321.607 54.8605 321.769 54.7909 321.991 54.6957C322.43 54.507 323.079 54.2268 323.861 53.8709C325.422 53.1598 327.517 52.1431 329.523 50.9408C331.519 49.7442 333.468 48.3397 334.705 46.8423C335.325 46.0916 335.789 45.2901 335.972 44.4547C336.157 43.6042 336.044 42.7436 335.552 41.9156L334.692 42.4267ZM321.178 54.5159C321.358 54.9825 321.358 54.9825 321.358 54.9825C321.358 54.9824 321.358 54.9824 321.358 54.9823C321.359 54.9822 321.359 54.982 321.36 54.9816C321.362 54.981 321.364 54.98 321.368 54.9786C321.375 54.9759 321.386 54.9718 321.401 54.9663C321.43 54.9553 321.473 54.9389 321.531 54.9177C321.645 54.8752 321.815 54.8135 322.032 54.737C322.465 54.584 323.089 54.372 323.844 54.1374C325.356 53.6675 327.389 53.1093 329.486 52.7496C331.592 52.3883 333.72 52.2346 335.44 52.5455C337.154 52.8556 338.359 53.6022 338.836 54.9628L339.78 54.6319C339.135 52.7927 337.513 51.9042 335.618 51.5615C333.727 51.2197 331.464 51.3956 329.317 51.764C327.162 52.1337 325.084 52.7051 323.547 53.1824C322.778 53.4214 322.143 53.6374 321.699 53.794C321.477 53.8723 321.303 53.9357 321.184 53.9798C321.124 54.0018 321.078 54.019 321.047 54.0308C321.032 54.0367 321.02 54.0412 321.012 54.0443C321.008 54.0459 321.004 54.0471 321.002 54.0479C321.001 54.0483 321 54.0486 321 54.0489C320.999 54.049 320.999 54.0491 320.999 54.0491C320.999 54.0492 320.999 54.0493 321.178 54.5159ZM338.836 54.9628C339.341 56.4031 339.081 57.5216 338.339 58.4615C337.568 59.4376 336.252 60.2507 334.596 60.9505C332.95 61.6462 331.026 62.2062 329.097 62.7085C327.187 63.2059 325.241 63.6536 323.629 64.1099L323.902 65.0721C325.506 64.6178 327.392 64.1859 329.349 63.6762C331.288 63.1714 333.269 62.5968 334.985 61.8716C336.691 61.1507 338.195 60.2568 339.123 59.0812C340.08 57.8693 340.397 56.3914 339.78 54.6319L338.836 54.9628ZM316.42 41.6939C311.407 43.2617 306.139 44.9285 301.564 46.5899C297.004 48.246 293.079 49.915 290.784 51.4976L291.351 52.321C293.529 50.8198 297.34 49.1878 301.906 47.5298C306.456 45.8772 311.703 44.2168 316.719 42.6484L316.42 41.6939ZM290.784 51.4976C288.82 52.8511 283.799 57.3363 278.27 62.4131C272.726 67.505 266.628 73.2331 262.489 77.1046L263.173 77.8349C267.313 73.9612 273.407 68.2375 278.947 63.1496C284.504 58.0467 289.46 53.6243 291.351 52.321L290.784 51.4976ZM263.049 77.9194C267.207 75.8988 273.312 72.4664 279.605 68.8851C285.906 65.2988 292.403 61.5601 297.366 58.9117L296.895 58.0295C291.916 60.6862 285.402 64.435 279.11 68.016C272.809 71.6019 266.735 75.0165 262.612 77.02L263.049 77.9194ZM297.13 58.4706C297.45 58.8548 297.45 58.8548 297.45 58.8547C297.451 58.8546 297.451 58.8544 297.451 58.8542C297.451 58.8538 297.452 58.8532 297.453 58.8524C297.455 58.8507 297.458 58.8482 297.462 58.845C297.47 58.8384 297.482 58.8286 297.497 58.8157C297.528 58.7898 297.574 58.7514 297.635 58.7013C297.755 58.6009 297.932 58.4533 298.159 58.2646C298.612 57.887 299.263 57.3447 300.054 56.6856C301.635 55.3673 303.775 53.5816 306.012 51.7119C310.484 47.9747 315.349 43.8957 316.898 42.5484L316.241 41.7939C314.702 43.1329 309.847 47.2036 305.371 50.9446C303.135 52.8139 300.994 54.5994 299.413 55.9175C298.623 56.5766 297.972 57.1188 297.519 57.4962C297.292 57.685 297.115 57.8325 296.995 57.9328C296.934 57.983 296.888 58.0214 296.857 58.0472C296.842 58.0601 296.83 58.0699 296.822 58.0765C296.818 58.0797 296.815 58.0822 296.813 58.0839C296.812 58.0847 296.812 58.0853 296.811 58.0857C296.811 58.0859 296.811 58.0861 296.811 58.0862C296.81 58.0863 296.81 58.0863 297.13 58.4706ZM297.211 58.964L321.259 55.0093L321.097 54.0225L297.049 57.9772L297.211 58.964ZM302.093 64.9918C298.05 66.8163 288.224 69.8114 279.364 72.3602C274.944 73.6319 270.778 74.7885 267.717 75.6273C266.187 76.0467 264.933 76.3866 264.062 76.6216C263.626 76.7391 263.286 76.8304 263.055 76.8922C262.94 76.9232 262.851 76.9468 262.792 76.9626C262.762 76.9706 262.74 76.9766 262.725 76.9806C262.717 76.9826 262.712 76.9841 262.708 76.9851C262.706 76.9856 262.705 76.986 262.704 76.9862C262.703 76.9863 262.703 76.9864 262.703 76.9865C262.702 76.9866 262.702 76.9866 262.831 77.4697C262.96 77.9529 262.96 77.9529 262.96 77.9528C262.96 77.9527 262.961 77.9526 262.961 77.9525C262.962 77.9522 262.963 77.9519 262.965 77.9514C262.969 77.9503 262.975 77.9488 262.983 77.9468C262.998 77.9428 263.02 77.9367 263.05 77.9288C263.11 77.9129 263.198 77.8892 263.314 77.8582C263.545 77.7962 263.886 77.7047 264.322 77.5871C265.195 77.3518 266.45 77.0115 267.982 76.5918C271.045 75.7522 275.215 74.5944 279.641 73.3212C288.473 70.7803 298.381 67.7642 302.504 65.9032L302.093 64.9918ZM302.504 65.9032C306.616 64.047 311.358 61.3007 315.062 59.0256C316.916 57.8868 318.514 56.8634 319.649 56.1247C320.217 55.7553 320.669 55.457 320.979 55.2508C321.134 55.1478 321.253 55.0677 321.334 55.0134C321.375 54.9862 321.406 54.9655 321.427 54.9515C321.437 54.9445 321.445 54.9392 321.45 54.9356C321.453 54.9338 321.455 54.9324 321.456 54.9315C321.457 54.9311 321.457 54.9307 321.458 54.9305C321.458 54.9303 321.458 54.9302 321.458 54.9302C321.458 54.9301 321.458 54.9301 321.178 54.5159C320.898 54.1017 320.898 54.1017 320.898 54.1017C320.898 54.1018 320.898 54.1019 320.898 54.102C320.898 54.1022 320.897 54.1025 320.896 54.1029C320.895 54.1037 320.893 54.105 320.891 54.1067C320.886 54.1101 320.878 54.1153 320.868 54.1221C320.848 54.1357 320.817 54.1561 320.777 54.1829C320.698 54.2365 320.579 54.3158 320.425 54.418C320.117 54.6226 319.668 54.9191 319.104 55.2866C317.975 56.0217 316.384 57.0402 314.539 58.1735C310.844 60.4429 306.146 63.1623 302.093 64.9918L302.504 65.9032ZM318.503 41.4248C322.262 39.794 331.161 35.3808 339.127 30.3274C343.109 27.8015 346.877 25.1038 349.654 22.503C351.043 21.2027 352.198 19.9142 353.009 18.6714C353.817 17.4335 354.309 16.2007 354.309 15.0222H353.309C353.309 15.9285 352.926 16.9687 352.172 18.125C351.42 19.2765 350.327 20.5034 348.971 21.773C346.259 24.3117 342.552 26.9708 338.592 29.483C330.674 34.506 321.821 38.8953 318.105 40.5074L318.503 41.4248ZM354.309 15.0222C354.309 12.0067 353.3 9.8533 351.591 8.46656C349.901 7.09437 347.597 6.53057 345.108 6.53057C340.137 6.53057 334.193 8.77678 330.148 11.8441L330.752 12.6409C334.65 9.68557 340.386 7.53057 345.108 7.53057C347.466 7.53057 349.513 8.06707 350.961 9.24295C352.392 10.4043 353.309 12.2467 353.309 15.0222H354.309ZM318.47 41.4377C339.468 34.0339 355.911 30.1026 367.099 28.0225C372.692 26.9824 376.972 26.4051 379.851 26.0879C381.29 25.9293 382.379 25.8357 383.107 25.7819C383.471 25.755 383.744 25.7379 383.926 25.7277C384.017 25.7226 384.085 25.7192 384.13 25.717C384.153 25.716 384.169 25.7152 384.18 25.7147C384.186 25.7145 384.19 25.7143 384.192 25.7142C384.193 25.7142 384.194 25.7141 384.195 25.7141C384.195 25.7141 384.195 25.7141 384.195 25.7141C384.195 25.7141 384.195 25.7141 384.176 25.2145C384.157 24.7149 384.156 24.7149 384.156 24.7149C384.156 24.7149 384.155 24.7149 384.155 24.7149C384.154 24.715 384.153 24.715 384.151 24.7151C384.148 24.7152 384.143 24.7154 384.137 24.7157C384.125 24.7162 384.106 24.717 384.083 24.7181C384.035 24.7204 383.964 24.724 383.87 24.7293C383.682 24.7399 383.403 24.7572 383.033 24.7846C382.294 24.8393 381.193 24.934 379.741 25.0939C376.839 25.4137 372.534 25.9946 366.916 27.0393C355.679 29.1287 339.185 33.0732 318.137 40.4946L318.47 41.4377ZM341.937 46.1123C335.406 48.8363 328.351 51.5124 320.952 53.926L321.262 54.8767C328.69 52.4537 335.769 49.7681 342.322 47.0353L341.937 46.1123ZM342.116 47.0736L357.533 47.4886L357.56 46.489L342.143 46.074L342.116 47.0736ZM357.187 46.6411L345.975 58.2232L346.694 58.9187L357.906 47.3366L357.187 46.6411ZM384.176 25.2145C383.907 24.7931 383.907 24.7931 383.907 24.7931C383.907 24.7932 383.907 24.7932 383.907 24.7933C383.906 24.7934 383.906 24.7937 383.905 24.794C383.904 24.7947 383.903 24.7958 383.9 24.7972C383.896 24.8001 383.889 24.8044 383.88 24.8102C383.862 24.8218 383.834 24.8392 383.798 24.8623C383.724 24.9085 383.615 24.9775 383.469 25.068C383.179 25.2491 382.746 25.5165 382.18 25.8606C381.047 26.5489 379.377 27.5443 377.234 28.771C372.947 31.2246 366.766 34.603 359.196 38.3001L359.635 39.1986C367.228 35.4906 373.428 32.1016 377.73 29.6389C379.882 28.4076 381.559 27.4078 382.699 26.7153C383.269 26.3691 383.705 26.0997 383.998 25.9166C384.145 25.8251 384.257 25.7551 384.331 25.7079C384.369 25.6843 384.397 25.6664 384.416 25.6544C384.425 25.6484 384.433 25.6438 384.438 25.6407C384.44 25.6391 384.442 25.638 384.443 25.6372C384.444 25.6368 384.444 25.6364 384.444 25.6362C384.445 25.6361 384.445 25.636 384.445 25.636C384.445 25.6359 384.445 25.6359 384.176 25.2145ZM359.196 38.3001C354.035 40.8204 348.229 43.4884 341.937 46.1123L342.322 47.0353C348.635 44.4029 354.459 41.7265 359.635 39.1986L359.196 38.3001ZM359.475 39.2458L375.826 37.293L375.707 36.3001L359.356 38.2529L359.475 39.2458ZM375.373 36.4889L364.16 50.8507L364.949 51.4661L376.161 37.1043L375.373 36.4889ZM352.048 1.61199C354.064 1.16776 356.551 1.2547 358.757 1.86066C360.978 2.47053 362.811 3.57551 363.651 5.07435L364.523 4.5856C363.494 2.74879 361.356 1.53735 359.022 0.896355C356.674 0.251447 354.022 0.153073 351.833 0.635417L352.048 1.61199ZM363.651 5.07435C364.498 6.58612 364.516 8.51647 363.906 10.3219C363.295 12.127 362.08 13.7318 360.57 14.5872L361.064 15.4572C362.824 14.4595 364.179 12.636 364.853 10.6422C365.527 8.64868 365.545 6.40947 364.523 4.5856L363.651 5.07435ZM350.354 21.9213C354.079 19.3813 360.937 15.118 367.372 12.4733C370.595 11.1488 373.67 10.2485 376.173 10.1506C378.672 10.0529 380.477 10.7507 381.399 12.478L382.281 12.007C381.101 9.79644 378.818 9.04644 376.134 9.15141C373.455 9.25618 370.251 10.209 366.992 11.5484C360.463 14.2315 353.539 18.539 349.79 21.0951L350.354 21.9213ZM381.399 12.478C382.201 13.9794 382.067 15.4393 381.148 16.9126C380.21 18.4183 378.453 19.9252 376.034 21.4011C371.206 24.3475 363.937 27.0538 356.005 29.3673L356.285 30.3273C364.237 28.008 371.61 25.2724 376.555 22.2548C379.023 20.7487 380.936 19.1431 381.997 17.4417C383.078 15.7079 383.274 13.8661 382.281 12.007L381.399 12.478Z" fill="black"/>
<ellipse id="Ellipse 1" cx="317.369" cy="101.656" rx="1.86872" ry="1.38985" fill="#D8B624"/>
<ellipse id="Ellipse 2" cx="336.991" cy="101.656" rx="1.86872" ry="1.38985" fill="#D8B624"/>
<ellipse id="Ellipse 4" cx="351.473" cy="105.826" rx="1.40154" ry="0.926568" fill="#D8B624"/>
<ellipse id="Ellipse 5" cx="375.3" cy="107.216" rx="1.86872" ry="1.38985" fill="#D8B624"/>
<ellipse id="Ellipse 3" cx="387.914" cy="111.385" rx="1.40154" ry="0.926568" fill="#D8B624"/>
</g>
<g id="p-112-64-32">
<ellipse id="Ellipse 75" cx="256" cy="112" rx="16" ry="4" transform="rotate(-180 256 112)" fill="#CAD1D6"/>
<path id="Vector 21_3" d="M288 0C288 112 272 56 272 112L240 112C240 56 224 112 224 -5.59506e-06L288 0Z" fill="#CAD1D6"/>
<ellipse id="Ellipse 74" cx="256" cy="-2.79753e-06" rx="32" ry="8" transform="rotate(-180 256 -2.79753e-06)" fill="#CAD1D6"/>
</g>
<g id="p-112-32-64">
<ellipse id="Ellipse 70_2" cx="256" cy="112" rx="32" ry="8" fill="#CAD1D6"/>
<path id="Vector 19_3" d="M224 112C224 0 240 56 240 0H272C272 56 288 0 288 112H224Z" fill="#CAD1D6"/>
<ellipse id="Ellipse 71_3" cx="256" rx="16" ry="4" fill="#CAD1D6"/>
</g>
<g id="p-96-128-32">
<path id="Ellipse 69_5" d="M272 96C272 98.2091 264.837 100 256 100C247.163 100 240 98.2091 240 96C240 93.7909 247.163 92 256 92C264.837 92 272 93.7909 272 96Z" fill="#83527B"/>
<path id="Vector 27" d="M243.5 98.5C241.5 98 192 80 192 0H320C320 80 270.5 98 268.5 98.5H243.5Z" fill="#83527B"/>
<ellipse id="Ellipse 68_8" cx="256" rx="64" ry="16" fill="#83527B"/>
</g>
<g id="p-96-32-128">
<ellipse id="Ellipse 64" cx="256" cy="96" rx="64" ry="16" fill="#ED6856"/>
<path id="Vector 2_2" d="M192 96.0003C192 48.0003 240 36.0003 240 0.000281228C240 0.000281228 240 4.3869e-05 272 0.000281228C272 36.0002 320 48.0003 320 96.0003H192Z" fill="#ED6856"/>
</g>
<g id="p-96-8-128">
<ellipse id="Ellipse 64_2" cx="256" cy="96" rx="64" ry="16" fill="#ED6856"/>
<path id="Vector 2_3" d="M192 96C192 49.5 252 42 252 0H260C260 42 320 49.5 320 96H192Z" fill="#ED6856"/>
</g>
<g id="p-64-128-64">
<ellipse id="Ellipse 66_2" cx="256" cy="64" rx="32" ry="8" fill="#187169"/>
<path id="Vector 21_4" d="M288 64C288 44.8 320 44.8 320 4.19617e-05L192 3.07716e-05C192 44.8 224 44.8 224 64L288 64Z" fill="#187169"/>
</g>
<g id="p-64-64-32">
<ellipse id="Ellipse 65_3" cx="256" cy="64" rx="16" ry="4" fill="#DE9C46"/>
<path id="Vector 23_3" d="M288 0L272 64H240L224 0H288Z" fill="#DE9C46"/>
</g>
<g id="p-64-64-8">
<ellipse id="Ellipse 68_9" cx="256" cy="64" rx="4" ry="1" fill="#ED6856"/>
<path id="Vector 19_4" d="M252 64C252 32 224 56 224 0H288C288 56 260 32 260 64H252Z" fill="#ED6856"/>
</g>
<g id="p-64-32-32">
<ellipse id="Ellipse 65_4" cx="256" cy="64" rx="16" ry="4" fill="#187169"/>
<rect id="Rectangle 45" x="240" width="32" height="64" fill="#187169"/>
</g>
<g id="p-64-8-32">
<ellipse id="Ellipse 67_3" cx="256" cy="64" rx="16" ry="4" fill="#EDDBBC"/>
<path id="Vector 22_3" d="M240 64C240 32 252 32 252 0H260C260 32 272 32 272 64H240Z" fill="#EDDBBC"/>
</g>
<g id="p-62-128-8">
<path id="Ellipse 51" d="M192 -1.11901e-05C192 8.40459 193.655 16.7269 196.872 24.4917C200.088 32.2566 204.802 39.3119 210.745 45.2548C216.688 51.1978 223.743 55.912 231.508 59.1283C239.273 62.3446 247.595 64 256 64C264.405 64 272.727 62.3446 280.492 59.1283C288.257 55.912 295.312 51.1978 301.255 45.2548C307.198 39.3119 311.912 32.2566 315.128 24.4917C318.345 16.7269 320 8.40459 320 -7.62939e-06L192 -1.11901e-05Z" fill="#E0E0E0"/>
</g>
<g id="p-62-8-128">
<ellipse id="Ellipse 64_3" cx="256" cy="62" rx="64" ry="16" fill="#ED6856"/>
<path id="Ellipse 49" d="M320 62C320 53.5954 318.345 45.2731 315.128 37.5083C311.912 29.7434 307.198 22.6881 301.255 16.7452C295.312 10.8022 288.257 6.08801 280.492 2.87171C272.727 -0.344592 264.405 -2 256 -2C247.595 -2 239.273 -0.34459 231.508 2.87171C223.743 6.08801 216.688 10.8022 210.745 16.7452C204.802 22.6881 200.088 29.7434 196.872 37.5083C193.655 45.2731 192 53.5954 192 62L320 62Z" fill="#ED6856"/>
</g>
<g id="p-48-128-128">
<ellipse id="Ellipse 64_4" cx="256" cy="48" rx="64" ry="16" fill="#EDDBBC"/>
<rect id="Rectangle 49" x="192" width="128" height="48" fill="#EDDBBC"/>
</g>
<g id="p-48-32-8">
<ellipse id="Ellipse 67_4" cx="256" cy="48" rx="4" ry="1" fill="#83527B"/>
<path id="Vector 29" d="M252 48C252 40 240 32 240 0H272C272 32 260 40 260 48H252Z" fill="#83527B"/>
<ellipse id="Ellipse 69_6" cx="256" rx="16" ry="4" fill="#83527B"/>
</g>
<g id="p-32-128-128">
<ellipse id="Ellipse 64_5" cx="256" cy="32" rx="64" ry="16" fill="#EF7181"/>
<rect id="Rectangle 48" x="192" width="128" height="32" fill="#EF7181"/>
</g>
<g id="p-32-128-8">
<ellipse id="Ellipse 68_10" cx="256" cy="32" rx="4" ry="1" fill="#8E4D3C"/>
<path id="Vector 26" d="M252 32C252 16 192 24 192 0H320C320 24 260 16 260 32H252Z" fill="#8E4D3C"/>
<ellipse id="Ellipse 69_7" cx="256" rx="64" ry="16" fill="#8E4D3C"/>
</g>
<g id="p-32-64-128">
<ellipse id="Ellipse 64_6" cx="256" cy="32" rx="64" ry="16" fill="#92C091"/>
<path id="Vector 21_5" d="M224 0C224 9.6 192 9.6 192 32H320C320 9.6 288 9.6 288 0H224Z" fill="#92C091"/>
</g>
<g id="p-32-64-64">
<ellipse id="Ellipse 66_3" cx="256" cy="32" rx="32" ry="8" fill="#DE9C46"/>
<rect id="Rectangle 50" x="224" width="64" height="32" fill="#DE9C46"/>
</g>
<g id="p-32-32-128">
<ellipse id="Ellipse 64_7" cx="256" cy="32" rx="64" ry="16" fill="#92C091"/>
<path id="Vector 21_6" d="M240 0C240 16 192 6 192 32H320C320 6 272 16 272 0H240Z" fill="#92C091"/>
</g>
<g id="p-32-32-32">
<ellipse id="Ellipse 65_5" cx="256" cy="32" rx="16" ry="4" fill="#EDDBBC"/>
<rect id="Rectangle 46" x="240" width="32" height="32" fill="#EDDBBC"/>
</g>
<g id="p-32-8-64">
<ellipse id="Ellipse 66_4" cx="256" cy="32" rx="32" ry="8" fill="#ED6856"/>
<path id="Vector 8_2" d="M224 32C224 16.9057 252 9.0566 251.999 0H259.999C259.999 9.0566 288 16.9057 288 32H224Z" fill="#ED6856"/>
</g>
<g id="p-32-8-8">
<ellipse id="Ellipse 81" cx="256" cy="32" rx="4" ry="1" fill="#DE9C46"/>
<rect id="Rectangle 10_2" x="252" width="8" height="32" fill="#DE9C46"/>
</g>
<g id="p-16-128-128">
<ellipse id="Ellipse 68_11" cx="256" cy="16" rx="64" ry="16" fill="#187169"/>
<rect id="Rectangle 52" x="192" width="128" height="16" fill="#187169"/>
<ellipse id="Ellipse 69_8" cx="256" rx="64" ry="16" fill="#187169"/>
<g id="Group 9">
<path id="K" d="M298.523 24.395L299.62 24.0856V21.0856L300.995 19.366L303.975 22.8576L305.361 22.4667L301.746 18.3742L305.222 13.9378L303.801 14.3384L299.62 19.7896V15.5176L298.523 15.827V24.395Z" fill="#CAD1D6"/>
<path id="R" d="M290.134 25.9939L291.255 25.7862V22.1262L293.992 21.6188C295.078 21.4176 295.267 22.1026 295.396 22.9066C295.562 23.716 295.385 24.6728 295.703 24.9617L296.954 24.7299C296.482 24.2414 296.517 23.2748 296.458 22.4578C296.364 21.6473 296.175 20.9382 295.196 20.9278V20.9038C296.222 20.4255 296.659 19.5046 296.659 18.4606C296.659 17.0806 295.691 16.3959 294.099 16.6911L290.134 17.4259V25.9939ZM291.255 21.1662V18.1782L294.04 17.6621C295.09 17.4674 295.538 17.9963 295.538 18.8483C295.538 20.0963 294.629 20.5407 293.591 20.7332L291.255 21.1662Z" fill="#CAD1D6"/>
<path id="A" d="M280.974 27.3203L282.137 27.1516L283.087 24.4338L286.674 23.9138L287.6 26.3595L288.847 26.1787L285.534 18.0911L284.287 18.2719L280.974 27.3203ZM283.444 23.4222L284.881 19.2178L284.904 19.2144L286.318 23.0055L283.444 23.4222Z" fill="#CAD1D6"/>
<path id="P" d="M274.197 27.8283L275.332 27.724V24.22L277.937 23.9806C279.646 23.8356 280.554 22.8042 280.554 21.2082C280.554 19.6121 279.646 18.7596 277.937 18.9166L274.197 19.2603V27.8283ZM275.332 20.116L277.555 19.9118C278.846 19.7932 279.419 20.2925 279.419 21.3125C279.419 22.3325 278.846 22.9492 277.555 23.0558L275.332 23.26V20.116Z" fill="#CAD1D6"/>
<path id="N" d="M260.61 28.5198L261.689 28.4774V21.6014L261.713 21.6004L266.186 28.3007L267.433 28.2517V19.6837L266.353 19.7261V26.6741L266.329 26.6751L261.821 19.9042L260.61 19.9518V28.5198Z" fill="#CAD1D6"/>
<path id="O" d="M250.998 24.3246C250.998 26.6646 252.378 28.8126 255.102 28.8126C257.826 28.8126 259.206 26.6646 259.206 24.3246C259.206 21.9846 257.826 19.8366 255.102 19.8366C252.378 19.8366 250.998 21.9846 250.998 24.3246ZM252.138 24.3246C252.138 22.5966 253.014 20.7966 255.102 20.7966C257.19 20.7966 258.066 22.5966 258.066 24.3246C258.066 26.0526 257.19 27.8526 255.102 27.8526C253.014 27.8526 252.138 26.0526 252.138 24.3246Z" fill="#CAD1D6"/>
<path id="I" d="M248.083 28.5002L249.223 28.5301V19.9621L248.083 19.9322V28.5002Z" fill="#CAD1D6"/>
<path id="T" d="M242.114 28.3093L243.253 28.3689V20.7609L246.105 20.9104V19.9504L239.262 19.5918V20.5518L242.114 20.7013V28.3093Z" fill="#CAD1D6"/>
<path id="I_2" d="M236.216 27.9163L237.353 27.9909V19.4229L236.216 19.3483V27.9163Z" fill="#CAD1D6"/>
<path id="U" d="M234.048 19.1727L232.914 19.0536V24.5256C232.914 26.0496 232.138 26.784 230.694 26.6322C229.179 26.4729 228.331 25.5679 228.331 24.0439V18.5719L227.198 18.4527V23.9247C227.198 26.2047 228.499 27.3614 230.694 27.5922C232.831 27.8168 234.048 26.8167 234.048 24.6447V19.1727Z" fill="#CAD1D6"/>
<path id="T_2" d="M222.075 26.3126L223.203 26.4761V18.8681L226.03 19.278V18.318L219.249 17.3347V18.2947L222.075 18.7046V26.3126Z" fill="#CAD1D6"/>
<path id="N_2" d="M211.28 24.2473L212.336 24.4718V17.5958L212.36 17.6008L216.738 25.4074L217.959 25.6669V17.0989L216.902 16.8743V23.8223L216.879 23.8173L212.465 15.9313L211.28 15.6793V24.2473Z" fill="#CAD1D6"/>
<path id="I_3" d="M207.902 23.418L208.999 23.7274V15.1594L207.902 14.85V23.418Z" fill="#CAD1D6"/>
</g>
</g>
<g id="p-16-64-64">
<ellipse id="Ellipse 66_5" cx="256" cy="16" rx="32" ry="8" fill="#AAD564"/>
<rect id="Rectangle 47" x="224" width="64" height="16" fill="#AAD564"/>
</g>
<g id="p-16-8-8">
<ellipse id="Ellipse 67_5" cx="256" cy="16" rx="4" ry="1" fill="#EF7181"/>
<rect id="Rectangle 51" x="252" width="8" height="16" fill="#EF7181"/>
</g>
<g id="p-8-8-8">
<ellipse id="Ellipse 71_4" cx="256" cy="8" rx="4" ry="1" fill="#E7CE4F"/>
<rect id="Rectangle 54" x="252" width="8" height="8" fill="#E7CE4F"/>
<ellipse id="Ellipse 70_3" cx="256" rx="4" ry="1" fill="#E7CE4F"/>
</g>
<g id="p-4-128-128">
<ellipse id="Ellipse 69_9" cx="256" cy="4" rx="64" ry="16" fill="#202020"/>
<rect id="Rectangle 33" x="192" width="128" height="4" fill="#202020"/>
</g>
<g id="p-4-64-64">
<ellipse id="Ellipse 66_6" cx="256" cy="4" rx="32" ry="8" fill="#202020"/>
<rect id="Rectangle 34" x="224" width="64" height="4" fill="#202020"/>
</g>
<g id="p-4-32-32">
<rect id="Rectangle 35" x="240" width="32" height="4" fill="#202020"/>
<ellipse id="Ellipse 67_6" cx="256" cy="4" rx="16" ry="4" fill="#202020"/>
</g>
<g id="p-4-8-8">
<ellipse id="Ellipse 68_12" cx="256" cy="4" rx="4" ry="1" fill="#202020"/>
<rect id="Rectangle 36" x="252" width="8" height="4" fill="#202020"/>
</g>
<g id="p-132-0-8">
<ellipse id="Ellipse 67_7" cx="256" cy="132" rx="4" ry="1" fill="#ED6856"/>
<rect id="Rectangle 26" x="260" y="132" width="8" height="128" transform="rotate(-180 260 132)" fill="#ED6856"/>
<path id="Ellipse 40" d="M260 4.00006C260 2.9392 259.579 1.92178 258.828 1.17164C258.078 0.42149 257.061 6.19445e-05 256 6.14007e-05C254.939 6.08569e-05 253.922 0.421487 253.172 1.17163C252.421 1.92178 252 2.93919 252 4.00006L260 4.00006Z" fill="#ED6856"/>
</g>
<g id="p-80-0-8">
<ellipse id="Ellipse 68_13" cx="256" cy="80" rx="4" ry="1" fill="#ED6856"/>
<path id="Vector 10_2" d="M246 32C246 6 248.5 0 256 0C263.5 0 266 6 266 32C266 48 260 64 260 80H252C252 64 246 48 246 32Z" fill="#ED6856"/>
</g>
<g id="p-64-0-64">
<ellipse id="Ellipse 68_14" cx="256" cy="64" rx="32" ry="8" fill="#ED6856"/>
<path id="Vector 30" d="M224 64C224 32 240 0 256 0C272 0 288 32 288 64H224Z" fill="#ED6856"/>
</g>
<g id="p-32-0-64">
<ellipse id="Ellipse 71_5" cx="256" cy="32" rx="32" ry="8" fill="#ED6856"/>
<path id="Ellipse 86" d="M288 32C288 27.7977 287.172 23.6365 285.564 19.7541C283.956 15.8717 281.599 12.3441 278.627 9.37258C275.656 6.40111 272.128 4.04401 268.246 2.43585C264.363 0.827704 260.202 -1.83688e-07 256 0C251.798 1.83688e-07 247.637 0.827705 243.754 2.43586C239.872 4.04401 236.344 6.40111 233.373 9.37258C230.401 12.3441 228.044 15.8717 226.436 19.7541C224.828 23.6366 224 27.7977 224 32L288 32Z" fill="#ED6856"/>
</g>
<g id="p-36-0-8">
<ellipse id="Ellipse 68_15" cx="256" cy="36" rx="4" ry="1" fill="#ED6856"/>
<rect id="Rectangle 24" x="260" y="36" width="8" height="32" transform="rotate(-180 260 36)" fill="#ED6856"/>
<path id="Ellipse 38" d="M260 4.00006C260 2.9392 259.579 1.92178 258.828 1.17164C258.078 0.42149 257.061 6.19445e-05 256 6.14007e-05C254.939 6.08569e-05 253.922 0.421487 253.172 1.17163C252.421 1.92178 252 2.93919 252 4.00006L260 4.00006Z" fill="#ED6856"/>
</g>
<g id="p-16-0-32">
<ellipse id="Ellipse 65_6" cx="256" cy="16" rx="16" ry="4" fill="#ED6856"/>
<path id="Ellipse 69_10" d="M272 16C272 11.7565 270.314 7.68687 267.314 4.68629C264.313 1.68571 260.243 3.20373e-07 256 0C251.757 -3.20373e-07 247.687 1.68571 244.686 4.68629C241.686 7.68687 240 11.7565 240 16L272 16Z" fill="#ED6856"/>
</g>
<g id="p-0-0-0">
<circle id="waterCircle2" cx="255.5" cy="0.5" r="1" stroke="white"/>
<circle id="waterCircle" cx="255.5" cy="0.5" r="1" stroke="white"/>
<circle id="water" cx="256" cy="2" r="2" fill="#0064FF" fill-opacity="0.4"/>
</g>
</g>
<defs>
<clipPath id="clip0">
<rect width="726" height="11098" fill="white"/>
</clipPath>
</defs>
</svg>
