<svg width="726" height="11098" viewBox="0 0 726 11098" fill="none" xmlns="http://www.w3.org/2000/svg">
<rect width="726" height="11098" fill="black"/>
<g id="floats" clip-path="url(#clip0)">
<rect width="726" height="11098" fill="white"/>
<g id="p-512-8-0">
<rect id="Rectangle 28" x="252" width="8" height="512" fill="#202020"/>
<path id="Ellipse 42" d="M252 512C252 513.061 252.421 514.078 253.172 514.828C253.922 515.579 254.939 516 256 516C257.061 516 258.078 515.579 258.828 514.828C259.579 514.078 260 513.061 260 512L252 512Z" fill="#202020"/>
</g>
<g id="p-256-8-0">
<rect id="Rectangle 27" x="252" width="8" height="256" fill="#202020"/>
<path id="Ellipse 41" d="M252 256C252 257.061 252.421 258.078 253.172 258.828C253.922 259.579 254.939 260 256 260C257.061 260 258.078 259.579 258.828 258.828C259.579 258.078 260 257.061 260 256L252 256Z" fill="#202020"/>
</g>
<g id="P-256-128-8">
<ellipse id="Ellipse 68" cx="256" cy="256" rx="4" ry="1" fill="#202020"/>
<path id="Vector 17" d="M320 0C320 132 260 240 260 256L252 256C252 240 192 132.5 192 -3.35703e-05L320 0Z" fill="#202020"/>
</g>
<g id="p-256-8-8">
<ellipse id="Ellipse 67" cx="256" cy="256" rx="4" ry="1" fill="#EF7181"/>
<rect id="Rectangle 51" x="252" width="8" height="256" fill="#EF7181"/>
</g>
<g id="p-254-64-8">
<path id="Vector 23" d="M255.999 256H256H256.001C260.001 256 263 256 264 254C266 249 288 31.9995 288 -0.000457764H224C224 31.9995 246 249 248 254C249 256 251.999 256 255.999 256Z" fill="#187169"/>
<ellipse id="Ellipse 69" rx="32" ry="8" transform="matrix(1 0 0 -1 256 0)" fill="#187169"/>
</g>
<g id="p-254-8-64">
<ellipse id="Ellipse 68_2" cx="256" cy="254" rx="32" ry="8" fill="#187169"/>
<path id="Vector 22" d="M255.999 -1.99982H256H256.001C260.001 -1.99982 263 -1.99982 264 0.000183344C266 5 288 222 288 254H224C224 222 246 5.00002 248 0.000183344C249 -1.99982 251.999 -1.99982 255.999 -1.99982Z" fill="#187169"/>
</g>
<g id="p-128-128-64">
<ellipse id="Ellipse 66" cx="256" cy="128" rx="32" ry="8" fill="#8E4D3C"/>
<path id="Vector 28" d="M192 48L192 0H320L320 48C320 64 288 64 288 80V128H224V80C224 64 192 64 192 48Z" fill="#8E4D3C"/>
<ellipse id="Ellipse 68_3" cx="256" rx="64" ry="16" fill="#8E4D3C"/>
</g>
<g id="p-128-128-32">
<ellipse id="Ellipse 65" cx="256" cy="128" rx="16" ry="4" fill="#92C091"/>
<path id="Vector 21" d="M272 128C272 96 320 48 320 -1.52588e-05L192 -4.06867e-06C192 48 240 96 240 128L272 128Z" fill="#92C091"/>
</g>
<g id="p-128-128-8">
<ellipse id="Ellipse 68_4" cx="256" cy="128" rx="4" ry="1" fill="#EDDBBC"/>
<path id="Vector 3" d="M192 0C192 58.6404 252 82.2069 252 128H260C260 82.2069 320 59.2709 320 0H192Z" fill="#EDDBBC"/>
</g>
<g id="p-128-64-128">
<ellipse id="Ellipse 68_5" cx="256" cy="128" rx="64" ry="16" fill="#E1CA52"/>
<path id="Vector 25" d="M192 128C192 96 224 80 224 0H288C288 80 320 96 320 128H192Z" fill="#E1CA52"/>
<ellipse id="Ellipse 69_2" cx="256" rx="32" ry="8" fill="#E1CA52"/>
</g>
<g id="p-128-64-32">
<ellipse id="Ellipse 73" cx="256" cy="128" rx="16" ry="4" transform="rotate(-180 256 128)" fill="#CAD1D6"/>
<path id="Vector 20" d="M288 0C288 48 272 80 272 128L240 128C240 80 224 48 224 -5.59506e-06L288 0Z" fill="#CAD1D6"/>
<ellipse id="Ellipse 72" cx="256" cy="-2.79753e-06" rx="32" ry="8" transform="rotate(-180 256 -2.79753e-06)" fill="#CAD1D6"/>
</g>
<g id="p-128-32-64">
<ellipse id="Ellipse 69_3" cx="256" cy="128" rx="32" ry="8" fill="#CAD1D6"/>
<path id="Vector 18" d="M224 128C224 80 240 48 240 0H272C272 48 288 80 288 128H224Z" fill="#CAD1D6"/>
<ellipse id="Ellipse 68_6" cx="256" rx="16" ry="4" fill="#CAD1D6"/>
</g>
<g id="p-128-32-8">
<ellipse id="Ellipse 67_2" cx="256" cy="128" rx="4" ry="1" fill="#E1CA52"/>
<path id="Vector 19" d="M252 128C252 64 240 128 240 0H272C272 128 260 64 260 128H252Z" fill="#E1CA52"/>
</g>
<g id="p-128-8-128">
<ellipse id="Ellipse 68_7" cx="256" cy="128" rx="64" ry="16" fill="#EDDBBC"/>
<path id="Vector 17_2" d="M192 128C192 112 252 120 252 0H260C260 120 320 112 320 128H192Z" fill="#EDDBBC"/>
<ellipse id="Ellipse 69_4" cx="256" rx="4" ry="1" fill="#EDDBBC"/>
</g>
<g id="p-128-8-32">
<ellipse id="Ellipse 65_2" cx="256" cy="128" rx="16" ry="4" fill="#ED6856"/>
<path id="Vector 20_2" d="M260 -1.04907e-06C260 64 272 0 272 128L240 128C240 -2.79753e-06 252 64 252 -1.74846e-06L260 -1.04907e-06Z" fill="#ED6856"/>
</g>
<g id="p-128-8-8">
<ellipse id="Ellipse 67_3" cx="256" cy="128" rx="4" ry="1" fill="#AAD564"/>
<rect id="Rectangle 10" x="252" width="8" height="128" fill="#AAD564"/>
</g>
<g id="p-112-64-32">
<ellipse id="Ellipse 75" cx="256" cy="112" rx="16" ry="4" transform="rotate(-180 256 112)" fill="#CAD1D6"/>
<path id="Vector 21_2" d="M288 0C288 112 272 56 272 112L240 112C240 56 224 112 224 -5.59506e-06L288 0Z" fill="#CAD1D6"/>
<ellipse id="Ellipse 74" cx="256" cy="-2.79753e-06" rx="32" ry="8" transform="rotate(-180 256 -2.79753e-06)" fill="#CAD1D6"/>
</g>
<g id="p-112-32-64">
<ellipse id="Ellipse 70" cx="256" cy="112" rx="32" ry="8" fill="#CAD1D6"/>
<path id="Vector 19_2" d="M224 112C224 0 240 56 240 0H272C272 56 288 0 288 112H224Z" fill="#CAD1D6"/>
<ellipse id="Ellipse 71" cx="256" rx="16" ry="4" fill="#CAD1D6"/>
</g>
<g id="p-96-128-32">
<path id="Ellipse 69_5" d="M272 96C272 98.2091 264.837 100 256 100C247.163 100 240 98.2091 240 96C240 93.7909 247.163 92 256 92C264.837 92 272 93.7909 272 96Z" fill="#202020"/>
<path id="Vector 27" d="M243.5 98.5C241.5 98 192 80 192 0H320C320 80 270.5 98 268.5 98.5H243.5Z" fill="#202020"/>
<ellipse id="Ellipse 68_8" cx="256" rx="64" ry="16" fill="#202020"/>
</g>
<g id="p-96-32-128">
<ellipse id="Ellipse 64" cx="256" cy="96" rx="64" ry="16" fill="#ED6856"/>
<path id="Vector 2" d="M192 96.0003C192 48.0003 240 36.0003 240 0.000281228C240 0.000281228 240 4.3869e-05 272 0.000281228C272 36.0002 320 48.0003 320 96.0003H192Z" fill="#ED6856"/>
</g>
<g id="p-96-8-128">
<ellipse id="Ellipse 64_2" cx="256" cy="96" rx="64" ry="16" fill="#ED6856"/>
<path id="Vector 2_2" d="M192 96C192 49.5 252 42 252 0H260C260 42 320 49.5 320 96H192Z" fill="#ED6856"/>
</g>
<g id="p-64-128-64">
<ellipse id="Ellipse 66_2" cx="256" cy="64" rx="32" ry="8" fill="#187169"/>
<path id="Vector 21_3" d="M288 64C288 44.8 320 44.8 320 4.19617e-05L192 3.07716e-05C192 44.8 224 44.8 224 64L288 64Z" fill="#187169"/>
</g>
<g id="p-64-64-32">
<ellipse id="Ellipse 65_3" cx="256" cy="64" rx="16" ry="4" fill="#DE9C46"/>
<path id="Vector 23_2" d="M288 0L272 64H240L224 0H288Z" fill="#DE9C46"/>
</g>
<g id="p-64-64-8">
<ellipse id="Ellipse 68_9" cx="256" cy="64" rx="4" ry="1" fill="#ED6856"/>
<path id="Vector 19_3" d="M252 64C252 32 224 56 224 0H288C288 56 260 32 260 64H252Z" fill="#ED6856"/>
</g>
<g id="p-64-32-32">
<ellipse id="Ellipse 65_4" cx="256" cy="64" rx="16" ry="4" fill="#187169"/>
<rect id="Rectangle 45" x="240" width="32" height="64" fill="#187169"/>
</g>
<g id="p-64-8-32">
<ellipse id="Ellipse 67_4" cx="256" cy="64" rx="16" ry="4" fill="#EDDBBC"/>
<path id="Vector 22_2" d="M240 64C240 32 252 32 252 0H260C260 32 272 32 272 64H240Z" fill="#EDDBBC"/>
</g>
<g id="p-62-128-8">
<path id="Ellipse 51" d="M192 -1.11901e-05C192 8.40459 193.655 16.7269 196.872 24.4917C200.088 32.2566 204.802 39.3119 210.745 45.2548C216.688 51.1978 223.743 55.912 231.508 59.1283C239.273 62.3446 247.595 64 256 64C264.405 64 272.727 62.3446 280.492 59.1283C288.257 55.912 295.312 51.1978 301.255 45.2548C307.198 39.3119 311.912 32.2566 315.128 24.4917C318.345 16.7269 320 8.40459 320 -7.62939e-06L192 -1.11901e-05Z" fill="#E0E0E0"/>
</g>
<g id="p-62-8-128">
<ellipse id="Ellipse 64_3" cx="256" cy="62" rx="64" ry="16" fill="#ED6856"/>
<path id="Ellipse 49" d="M320 62C320 53.5954 318.345 45.2731 315.128 37.5083C311.912 29.7434 307.198 22.6881 301.255 16.7452C295.312 10.8022 288.257 6.08801 280.492 2.87171C272.727 -0.344592 264.405 -2 256 -2C247.595 -2 239.273 -0.34459 231.508 2.87171C223.743 6.08801 216.688 10.8022 210.745 16.7452C204.802 22.6881 200.088 29.7434 196.872 37.5083C193.655 45.2731 192 53.5954 192 62L320 62Z" fill="#ED6856"/>
</g>
<g id="p-48-128-128">
<ellipse id="Ellipse 64_4" cx="256" cy="48" rx="64" ry="16" fill="#EDDBBC"/>
<rect id="Rectangle 49" x="192" width="128" height="48" fill="#EDDBBC"/>
</g>
<g id="p-48-32-8">
<ellipse id="Ellipse 67_5" cx="256" cy="48" rx="4" ry="1" fill="#83527B"/>
<path id="Vector 29" d="M252 48C252 40 240 32 240 0H272C272 32 260 40 260 48H252Z" fill="#83527B"/>
<ellipse id="Ellipse 69_6" cx="256" rx="16" ry="4" fill="#83527B"/>
</g>
<g id="p-32-128-128">
<ellipse id="Ellipse 64_5" cx="256" cy="32" rx="64" ry="16" fill="#EF7181"/>
<rect id="Rectangle 48" x="192" width="128" height="32" fill="#EF7181"/>
</g>
<g id="p-32-128-8">
<ellipse id="Ellipse 68_10" cx="256" cy="32" rx="4" ry="1" fill="#8E4D3C"/>
<path id="Vector 26" d="M252 32C252 16 192 24 192 0H320C320 24 260 16 260 32H252Z" fill="#8E4D3C"/>
<ellipse id="Ellipse 69_7" cx="256" rx="64" ry="16" fill="#8E4D3C"/>
</g>
<g id="p-32-64-128">
<ellipse id="Ellipse 64_6" cx="256" cy="32" rx="64" ry="16" fill="#92C091"/>
<path id="Vector 21_4" d="M224 0C224 9.6 192 9.6 192 32H320C320 9.6 288 9.6 288 0H224Z" fill="#92C091"/>
</g>
<g id="p-32-64-64">
<ellipse id="Ellipse 66_3" cx="256" cy="32" rx="32" ry="8" fill="#DE9C46"/>
<rect id="Rectangle 50" x="224" width="64" height="32" fill="#DE9C46"/>
</g>
<g id="p-32-32-128">
<ellipse id="Ellipse 64_7" cx="256" cy="32" rx="64" ry="16" fill="#92C091"/>
<path id="Vector 21_5" d="M240 0C240 16 192 6 192 32H320C320 6 272 16 272 0H240Z" fill="#92C091"/>
</g>
<g id="p-32-32-32">
<ellipse id="Ellipse 65_5" cx="256" cy="32" rx="16" ry="4" fill="#8E4D3C"/>
<rect id="Rectangle 46" x="240" width="32" height="32" fill="#8E4D3C"/>
</g>
<g id="p-32-8-64">
<ellipse id="Ellipse 66_4" cx="256" cy="32" rx="32" ry="8" fill="#ED6856"/>
<path id="Vector 8" d="M224 32C224 16.9057 252 9.0566 251.999 0H259.999C259.999 9.0566 288 16.9057 288 32H224Z" fill="#ED6856"/>
</g>
<g id="p-32-8-8">
<ellipse id="Ellipse 81" cx="256" cy="32" rx="4" ry="1" fill="#E1CA52"/>
<rect id="Rectangle 10_2" x="252" width="8" height="32" fill="#E1CA52"/>
</g>
<g id="p-16-128-128">
<ellipse id="Ellipse 68_11" cx="256" cy="16" rx="64" ry="16" fill="#187169"/>
<rect id="Rectangle 52" x="192" width="128" height="16" fill="#187169"/>
<ellipse id="Ellipse 69_8" cx="256" rx="64" ry="16" fill="#187169"/>
<g id="Group 9">
<path id="K" d="M298.523 24.395L299.62 24.0856V21.0856L300.995 19.366L303.975 22.8576L305.361 22.4667L301.746 18.3742L305.222 13.9378L303.801 14.3384L299.62 19.7896V15.5176L298.523 15.827V24.395Z" fill="#CAD1D6"/>
<path id="R" d="M290.134 25.9939L291.255 25.7862V22.1262L293.992 21.6188C295.078 21.4176 295.267 22.1026 295.396 22.9066C295.562 23.716 295.385 24.6728 295.703 24.9617L296.954 24.7299C296.482 24.2414 296.517 23.2748 296.458 22.4578C296.364 21.6473 296.175 20.9382 295.196 20.9278V20.9038C296.222 20.4255 296.659 19.5046 296.659 18.4606C296.659 17.0806 295.691 16.3959 294.099 16.6911L290.134 17.4259V25.9939ZM291.255 21.1662V18.1782L294.04 17.6621C295.09 17.4674 295.538 17.9963 295.538 18.8483C295.538 20.0963 294.629 20.5407 293.591 20.7332L291.255 21.1662Z" fill="#CAD1D6"/>
<path id="A" d="M280.974 27.3203L282.137 27.1516L283.087 24.4338L286.674 23.9138L287.6 26.3595L288.847 26.1787L285.534 18.0911L284.287 18.2719L280.974 27.3203ZM283.444 23.4222L284.881 19.2178L284.904 19.2144L286.318 23.0055L283.444 23.4222Z" fill="#CAD1D6"/>
<path id="P" d="M274.197 27.8283L275.332 27.724V24.22L277.937 23.9806C279.646 23.8356 280.554 22.8042 280.554 21.2082C280.554 19.6121 279.646 18.7596 277.937 18.9166L274.197 19.2603V27.8283ZM275.332 20.116L277.555 19.9118C278.846 19.7932 279.419 20.2925 279.419 21.3125C279.419 22.3325 278.846 22.9492 277.555 23.0558L275.332 23.26V20.116Z" fill="#CAD1D6"/>
<path id="N" d="M260.61 28.5198L261.689 28.4774V21.6014L261.713 21.6004L266.186 28.3007L267.433 28.2517V19.6837L266.353 19.7261V26.6741L266.329 26.6751L261.821 19.9042L260.61 19.9518V28.5198Z" fill="#CAD1D6"/>
<path id="O" d="M250.998 24.3246C250.998 26.6646 252.378 28.8126 255.102 28.8126C257.826 28.8126 259.206 26.6646 259.206 24.3246C259.206 21.9846 257.826 19.8366 255.102 19.8366C252.378 19.8366 250.998 21.9846 250.998 24.3246ZM252.138 24.3246C252.138 22.5966 253.014 20.7966 255.102 20.7966C257.19 20.7966 258.066 22.5966 258.066 24.3246C258.066 26.0526 257.19 27.8526 255.102 27.8526C253.014 27.8526 252.138 26.0526 252.138 24.3246Z" fill="#CAD1D6"/>
<path id="I" d="M248.083 28.5002L249.223 28.5301V19.9621L248.083 19.9322V28.5002Z" fill="#CAD1D6"/>
<path id="T" d="M242.114 28.3093L243.253 28.3689V20.7609L246.105 20.9104V19.9504L239.262 19.5918V20.5518L242.114 20.7013V28.3093Z" fill="#CAD1D6"/>
<path id="I_2" d="M236.216 27.9163L237.353 27.9909V19.4229L236.216 19.3483V27.9163Z" fill="#CAD1D6"/>
<path id="U" d="M234.048 19.1727L232.914 19.0536V24.5256C232.914 26.0496 232.138 26.784 230.694 26.6322C229.179 26.4729 228.331 25.5679 228.331 24.0439V18.5719L227.198 18.4527V23.9247C227.198 26.2047 228.499 27.3614 230.694 27.5922C232.831 27.8168 234.048 26.8167 234.048 24.6447V19.1727Z" fill="#CAD1D6"/>
<path id="T_2" d="M222.075 26.3126L223.203 26.4761V18.8681L226.03 19.278V18.318L219.249 17.3347V18.2947L222.075 18.7046V26.3126Z" fill="#CAD1D6"/>
<path id="N_2" d="M211.28 24.2473L212.336 24.4718V17.5958L212.36 17.6008L216.738 25.4074L217.959 25.6669V17.0989L216.902 16.8743V23.8223L216.879 23.8173L212.465 15.9313L211.28 15.6793V24.2473Z" fill="#CAD1D6"/>
<path id="I_3" d="M207.902 23.418L208.999 23.7274V15.1594L207.902 14.85V23.418Z" fill="#CAD1D6"/>
</g>
</g>
<g id="p-16-64-64">
<ellipse id="Ellipse 66_5" cx="256" cy="16" rx="32" ry="8" fill="#AAD564"/>
<rect id="Rectangle 47" x="224" width="64" height="16" fill="#AAD564"/>
</g>
<g id="p-4-128-128">
<ellipse id="Ellipse 69_9" cx="256" cy="4" rx="64" ry="16" fill="#202020"/>
<rect id="Rectangle 33" x="192" width="128" height="4" fill="#202020"/>
</g>
<g id="p-4-64-64">
<ellipse id="Ellipse 66_6" cx="256" cy="4" rx="32" ry="8" fill="#202020"/>
<rect id="Rectangle 34" x="224" width="64" height="4" fill="#202020"/>
</g>
<g id="p-4-32-32">
<rect id="Rectangle 35" x="240" width="32" height="4" fill="#202020"/>
<ellipse id="Ellipse 67_6" cx="256" cy="4" rx="16" ry="4" fill="#202020"/>
</g>
<g id="p-4-8-8">
<ellipse id="Ellipse 68_12" cx="256" cy="4" rx="4" ry="1" fill="#202020"/>
<rect id="Rectangle 36" x="252" width="8" height="4" fill="#202020"/>
</g>
<g id="p-158-0-64">
<ellipse id="Ellipse 85" cx="256" cy="156" rx="32" ry="8" fill="#ED6856"/>
<path id="Ellipse 84" d="M288 156C288 151.798 287.172 147.637 285.564 143.754C283.956 139.872 281.599 136.344 278.627 133.373C275.656 130.401 272.128 128.044 268.246 126.436C264.363 124.828 260.202 124 256 124C251.798 124 247.637 124.828 243.754 126.436C239.872 128.044 236.344 130.401 233.373 133.373C230.401 136.344 228.044 139.872 226.436 143.754C224.828 147.637 224 151.798 224 156L256 156H288Z" fill="#ED6856"/>
<g id="Group 1">
<path id="Vector 8_2" d="M257.969 123.018C256.405 119.447 253.163 112.805 250.494 109.865L256.305 122.389C256.512 122.837 256.363 123.368 255.955 123.646C250.627 127.281 244.73 132.229 244.73 132.229C244.73 132.229 254.005 126.696 257.635 124.201C258.017 123.938 258.156 123.443 257.969 123.018Z" fill="#181818"/>
<path id="Vector 9" d="M267.964 121.874C265.055 118.592 259.053 112.344 255.28 110.253L265.574 121.848C265.841 122.149 265.901 122.58 265.731 122.945C262.504 129.878 259.874 138.963 259.874 138.963C259.874 138.963 266.061 127.444 268.124 122.915C268.284 122.565 268.22 122.162 267.964 121.874Z" fill="#181818"/>
<path id="Vector 10" d="M279.912 120.01C276.943 117.249 271.013 112.171 267.28 110.516L277.412 120.255C277.735 120.566 277.811 121.053 277.605 121.451C274.475 127.512 272.07 135.142 272.07 135.142C272.07 135.142 278.019 125.235 280.118 121.158C280.317 120.771 280.23 120.306 279.912 120.01Z" fill="#181818"/>
<path id="Vector 6" d="M300.364 112.595C292.004 111.846 271.548 111.347 262.365 111.191L300.364 101.829C336.305 106.822 393.462 115.404 406.287 117.276C410.302 117.862 402.012 123.829 399.162 123.829C396.882 123.829 390.929 121.333 389.187 120.553L300.364 112.595Z" fill="#EBED99"/>
<path id="Vector 24" d="M232.31 94.7937C235.28 96.2266 235.42 101.015 235.28 102.727C234.873 107.716 232.31 113.727 228.33 112.457C224.034 111.087 224.465 104.8 224.756 101.239C225.175 96.1036 229.419 93.3983 232.31 94.7937Z" fill="#232E5E"/>
<g id="Mask Group">
<mask id="mask0" mask-type="alpha" maskUnits="userSpaceOnUse" x="262" y="101" width="146" height="23">
<path id="Vector 20_3" d="M300.364 112.595C292.004 111.846 271.548 111.347 262.365 111.191L300.364 101.829C336.305 106.822 393.462 115.404 406.287 117.276C410.302 117.862 402.012 123.829 399.162 123.829C396.882 123.829 390.929 121.333 389.187 120.553L300.364 112.595Z" fill="#EBED99"/>
</mask>
<g mask="url(#mask0)">
<g id="Vector 19_4">
<path d="M321.362 116.704C321.334 116.707 321.307 116.71 321.28 116.713C321.307 116.71 321.335 116.707 321.362 116.704C323.076 116.519 327.025 115.681 329.78 113.713C332.58 111.713 334.28 107.546 334.78 105.713H340.78C340.78 106.879 340.28 109.813 338.28 112.213C336.291 114.599 326.227 116.195 321.362 116.704Z" fill="#00818A"/>
<path d="M344.78 118.713C350.28 115.713 352.28 113.713 351.78 108.213L359.78 106.713C359.613 107.879 358.68 111.113 356.28 114.713C353.28 119.213 339.28 121.713 344.78 118.713Z" fill="#00818A"/>
<path d="M367.28 114.713C362.88 117.513 361.447 119.213 361.28 119.713V122.713C363.28 121.379 369.48 118.113 378.28 115.713C387.08 113.313 393.947 112.379 396.28 112.213C388.447 111.879 371.68 111.913 367.28 114.713Z" fill="#00818A"/>
<path d="M391.28 119.713C386.48 121.313 383.28 121.046 382.28 120.713C382.947 121.379 384.88 122.713 387.28 122.713C390.28 122.713 392.28 122.713 396.28 120.713C399.48 119.113 404.947 118.046 407.28 117.713C403.947 117.713 396.08 118.113 391.28 119.713Z" fill="#00818A"/>
</g>
</g>
</g>
<path id="Vector 15" d="M300.364 112.595C292.004 111.846 271.548 111.347 262.365 111.191L300.364 101.829C310.667 103.285 317.174 104.187 321.28 104.786C323.78 105.151 321.28 109.213 318.78 111.213C316.28 113.213 308.724 113.344 300.364 112.595Z" fill="#216583"/>
<path id="Vector 14" d="M300.364 112.595C300.364 112.595 271.548 111.347 262.365 111.191L300.364 101.829C305.175 102.498 310.366 103.23 315.78 104.003C315.78 104.003 315.28 106.713 312.78 109.213C310.28 111.713 300.364 112.595 300.364 112.595Z" fill="#EBED99"/>
<path id="Vector 5" d="M234.28 113.213C232.6 112.127 232.198 109.663 232.365 108.829L233.365 103.829C244.031 95.996 268.065 80.7293 278.865 82.3293C287.956 83.6762 299.103 94.8026 305.683 102.763C307.15 104.538 306.025 107.156 303.738 107.418C278.218 110.344 237.004 114.973 234.28 113.213Z" fill="#00818A"/>
<ellipse id="Ellipse 6" cx="256.172" cy="95.555" rx="13.7485" ry="0.818235" transform="rotate(-25.8604 256.172 95.555)" fill="#2AA3AB"/>
<g id="Mask Group_2">
<mask id="mask1" mask-type="alpha" maskUnits="userSpaceOnUse" x="232" y="82" width="75" height="32">
<path id="Vector 18_2" d="M234.28 113.213C232.6 112.127 232.198 109.663 232.365 108.829L233.365 103.829C244.031 95.996 268.065 80.7293 278.865 82.3293C287.956 83.6762 299.103 94.8026 305.683 102.763C307.15 104.538 306.025 107.156 303.738 107.418C278.218 110.344 237.004 114.973 234.28 113.213Z" fill="#00818A"/>
</mask>
<g mask="url(#mask1)">
<g id="Vector 17_3">
<path d="M248.821 99.3053C244.371 96.6552 239.81 97.3107 238.086 97.9697L249.216 90.2348C251.827 91.9923 257.469 96.8592 259.144 102.267C260.82 107.674 258.703 113.113 257.436 115.157C256.418 110.977 253.271 101.955 248.821 99.3053Z" fill="#F7BE16"/>
<path d="M269.373 96.7259C266.82 90.9575 260.031 87.8417 256.955 87.0048C267.005 86.2636 274.996 93.6519 275.347 98.4126C275.557 101.26 271.969 106.349 268.769 110.172C272.09 109.537 279.47 106.724 282.419 100.55C286.104 92.8326 287.379 88.4838 286.538 84.2911C285.697 80.0984 292.413 91.8355 289.295 100.043C286.801 106.609 283.461 109.869 282.102 110.679L268.769 110.172C267.688 111.462 266.652 112.608 265.821 113.475C268.069 110.295 271.925 102.494 269.373 96.7259Z" fill="#F7BE16"/>
</g>
<g id="Vector 16">
<path d="M250.421 98.0566C246.191 95.1381 241.608 95.4508 239.846 95.9719L251.478 89.1968C253.946 91.1077 259.198 96.2846 260.467 101.705C261.736 107.125 259.233 112.302 257.823 114.213C257.118 110.043 254.651 100.975 250.421 98.0566Z" fill="#216583"/>
<path d="M271.042 97.0143C268.927 91.1772 262.406 87.6333 259.409 86.591C269.456 86.591 276.858 94.4084 276.858 99.0989C276.858 101.904 272.918 106.632 269.456 110.147C272.805 109.765 280.348 107.542 283.732 101.705C287.962 94.4084 289.548 90.2391 289.02 86.0698C288.491 81.9005 294.307 93.8873 290.606 101.705C287.645 107.959 284.085 110.912 282.675 111.607L269.456 110.147C268.287 111.333 267.173 112.381 266.283 113.17C268.751 110.217 273.157 102.851 271.042 97.0143Z" fill="#216583"/>
</g>
</g>
</g>
<path id="Vector 3_2" d="M221.024 112.877C223.731 115.032 225.416 114.362 227.834 113.939L225.058 108.04C222.811 108.934 218.859 111.152 221.024 112.877Z" fill="#00818A"/>
<path id="Vector 4" d="M220.424 110.251C220.81 107.707 222.221 106.701 223.931 105.104L225.682 108.773C223.801 110.114 220.116 112.287 220.424 110.251Z" fill="#EBED99"/>
<path id="Vector 1" d="M231.31 97.2799C234.28 98.7128 234.42 103.501 234.28 105.213C233.873 110.202 231.31 116.213 227.33 114.943C223.034 113.573 223.465 107.286 223.756 103.726C224.175 98.5898 228.419 95.8845 231.31 97.2799Z" fill="#293462"/>
<path id="Vector 2_3" d="M226.395 101.919C226.108 103.151 226.431 104.092 226.628 104.408L228.199 99.7406C227.717 99.9533 226.681 100.687 226.395 101.919Z" fill="#B7D24B"/>
<path id="Vector 22_3" d="M375.28 48.2127L352.28 50.7127L367.28 51.7127L355.78 63.7127L375.28 48.2127Z" fill="#02838C"/>
<path id="Vector 21_6" d="M281.28 80.7128C283.78 79.7128 318.601 66.2128 320.28 70.7128C321.96 75.2128 285.05 79.9422 281.28 80.7128Z" fill="#EBED99"/>
<path id="Vector 23_3" d="M344.28 60.2127C343.08 57.8127 333.78 58.8794 329.28 59.7127C334.78 57.8794 346.18 55.3127 347.78 59.7127C349.38 64.1127 344.113 66.8794 341.28 67.7127C342.78 66.2127 345.48 62.6127 344.28 60.2127Z" fill="#293462"/>
<path id="Vector" d="M265.445 85.1418L265.059 84.8236L264.062 86.0331L265.575 85.6245L265.445 85.1418ZM369.042 1.01373L369.062 0.514099L369.042 1.01373ZM390.016 44.707L389.649 44.3679L390.016 44.707ZM343.28 46.5133L342.849 46.7673L343.28 46.5133ZM296.13 57.0232L296.416 57.4337L296.13 57.0232ZM265.91 84.6093L265.567 84.2456L266.04 85.0922L265.91 84.6093ZM325.28 45.2127L325.08 44.7547L325.448 45.6839L325.28 45.2127ZM395.78 28.2128L396.051 28.6331C396.24 28.511 396.325 28.2773 396.257 28.0623C396.189 27.8473 395.986 27.7043 395.761 27.7131L395.78 28.2128ZM367.28 51.7128L367.641 52.059L368.424 51.2436L367.294 51.2129L367.28 51.7128ZM369.28 42.8203L369.059 42.3717L369.28 42.8203ZM386.78 40.7128L387.175 41.0188L387.907 40.0734L386.72 40.2163L386.78 40.7128ZM393.28 14.2128L392.838 14.4467L393.28 14.2128ZM265.831 85.4599C277.559 71.2384 296.809 49.9697 316.434 32.3894C326.247 23.5986 336.142 15.7412 345.228 10.1484C354.333 4.54325 362.548 1.26307 369.023 1.51335L369.062 0.514099C362.273 0.251679 353.84 3.67241 344.703 9.29675C335.546 14.9333 325.602 22.8339 315.767 31.6446C296.094 49.2672 276.81 70.5752 265.059 84.8236L265.831 85.4599ZM369.023 1.51335C377.23 1.83056 383.13 4.09452 387.243 7.41819C391.356 10.7418 393.723 15.1569 394.806 19.8475C395.89 24.5426 395.686 29.5053 394.66 33.8895C393.633 38.2805 391.792 42.0457 389.649 44.3679L390.384 45.0461C392.678 42.5602 394.58 38.62 395.634 34.1173C396.689 29.6077 396.904 24.4884 395.78 19.6225C394.655 14.7519 392.187 10.1269 387.872 6.64037C383.557 3.1539 377.436 0.837773 369.062 0.514099L369.023 1.51335ZM389.649 44.3679C384.168 50.3053 376.306 55.0947 366.901 59.1126C357.499 63.129 346.589 66.3615 335.041 69.2019C323.493 72.0422 311.325 74.4862 299.408 76.9311C287.495 79.375 275.832 81.8198 265.315 84.659L265.575 85.6245C276.059 82.7943 287.693 80.3552 299.609 77.9107C311.518 75.4674 323.708 73.019 335.279 70.173C346.85 67.327 357.82 64.0794 367.294 60.0322C376.763 55.9865 384.769 51.1288 390.384 45.0461L389.649 44.3679ZM313.946 34.6996C316.512 32.7859 320.221 30.1251 323.88 28.615C327.573 27.0914 330.968 26.8309 333.181 29.3001L333.925 28.6326C331.25 25.6471 327.255 26.1405 323.499 27.6906C319.71 29.2542 315.91 31.9871 313.349 33.898L313.946 34.6996ZM333.181 29.3001C334.288 30.5354 334.575 31.9287 334.302 33.4161C334.025 34.9285 333.164 36.5431 331.953 38.1425C329.534 41.3384 325.829 44.325 323.149 46.0961L323.7 46.9305C326.432 45.1254 330.237 42.0659 332.751 38.7461C334.006 37.0876 334.968 35.3269 335.286 33.5966C335.608 31.8414 335.263 30.1247 333.925 28.6326L333.181 29.3001ZM323.64 46.9644C326.223 45.7304 330.22 44.2095 334.001 43.7574C337.811 43.3018 341.187 43.9485 342.849 46.7673L343.711 46.2593C341.728 42.8973 337.784 42.2979 333.882 42.7645C329.95 43.2346 325.842 44.8041 323.209 46.0621L323.64 46.9644ZM342.849 46.7673C343.604 48.0459 343.243 49.419 342.034 50.8941C340.825 52.3701 338.862 53.8125 336.753 55.0872C334.654 56.3563 332.451 57.4352 330.797 58.1947C329.971 58.5741 329.284 58.873 328.816 59.0758C328.584 59.1764 328.4 59.2558 328.283 59.3087C328.228 59.3333 328.172 59.3591 328.132 59.381C328.121 59.3868 328.104 59.3963 328.085 59.4084C328.082 59.4102 328.019 59.448 327.964 59.5153C327.95 59.532 327.828 59.6723 327.851 59.8879C327.882 60.1795 328.118 60.2867 328.193 60.3113C328.273 60.3375 328.339 60.3369 328.358 60.3367C328.386 60.3364 328.408 60.3338 328.421 60.3322L328.292 59.3405C328.301 59.3393 328.321 59.337 328.347 59.3367C328.363 59.3366 328.427 59.3357 328.506 59.3615C328.579 59.3857 328.815 59.4922 328.846 59.7831C328.868 59.9978 328.747 60.137 328.734 60.1525C328.701 60.1924 328.67 60.2174 328.659 60.2259C328.644 60.2372 328.633 60.2451 328.627 60.249C328.62 60.2533 328.615 60.2564 328.612 60.2579C328.609 60.2596 328.607 60.2606 328.607 60.2609C328.606 60.2612 328.613 60.2578 328.63 60.2496C328.646 60.2421 328.667 60.2324 328.694 60.2204C328.802 60.1713 328.977 60.0961 329.213 59.9934C329.683 59.7897 330.379 59.4875 331.215 59.1035C332.885 58.3363 335.126 57.2396 337.271 55.943C339.406 54.6521 341.488 53.1387 342.808 51.5278C344.128 49.916 344.779 48.071 343.711 46.2593L342.849 46.7673ZM328.357 59.8363C328.538 60.3024 328.538 60.3024 328.538 60.3024C328.538 60.3024 328.538 60.3023 328.538 60.3023C328.538 60.3021 328.539 60.3019 328.54 60.3015C328.542 60.3008 328.545 60.2997 328.549 60.2982C328.556 60.2953 328.568 60.2908 328.584 60.2848C328.615 60.273 328.662 60.2552 328.723 60.2323C328.846 60.1865 329.027 60.1198 329.26 60.0372C329.724 59.8719 330.391 59.643 331.2 59.3897C332.82 58.8823 334.997 58.2795 337.243 57.8908C339.498 57.5007 341.78 57.3342 343.625 57.6707C345.465 58.0062 346.771 58.8163 347.288 60.3043L348.233 59.9759C347.549 58.0106 345.829 57.056 343.805 56.6869C341.787 56.319 339.368 56.5082 337.072 56.9055C334.768 57.3043 332.545 57.9205 330.901 58.4354C330.079 58.6931 329.399 58.9262 328.924 59.095C328.687 59.1795 328.501 59.2479 328.373 59.2954C328.31 59.3192 328.261 59.3377 328.228 59.3504C328.211 59.3567 328.198 59.3616 328.189 59.3649C328.185 59.3666 328.182 59.3679 328.179 59.3688C328.178 59.3692 328.177 59.3696 328.177 59.3698C328.176 59.3699 328.176 59.37 328.176 59.3701C328.176 59.3702 328.176 59.3703 328.357 59.8363ZM347.288 60.3043C347.833 61.8728 347.552 63.0955 346.749 64.1208C345.918 65.1818 344.503 66.0621 342.729 66.818C340.965 67.5698 338.905 68.1747 336.84 68.7168C334.794 69.2541 332.713 69.7367 330.988 70.2291L331.263 71.1907C332.98 70.7003 335 70.2337 337.094 69.684C339.168 69.1393 341.287 68.5196 343.121 67.738C344.946 66.9605 346.549 65.9986 347.536 64.7373C348.552 63.4403 348.888 61.8608 348.233 59.9759L347.288 60.3043ZM323.274 46.0364C317.908 47.7285 312.271 49.5271 307.375 51.3199C302.495 53.1074 298.298 54.9074 295.845 56.6126L296.416 57.4337C298.75 55.8108 302.834 54.0482 307.719 52.2589C312.59 50.475 318.207 48.6828 323.574 46.9901L323.274 46.0364ZM295.845 56.6126C293.746 58.0716 288.374 62.91 282.457 68.39C276.523 73.8853 269.997 80.0672 265.567 84.2456L266.253 84.973C270.685 80.7924 277.207 74.6149 283.136 69.1237C289.082 63.6173 294.39 58.8422 296.416 57.4337L295.845 56.6126ZM266.13 85.0583C270.579 82.8781 277.111 79.1743 283.847 75.309C290.591 71.4386 297.544 67.4033 302.856 64.5448L302.382 63.6642C297.054 66.5312 290.084 70.5767 283.349 74.4416C276.605 78.3116 270.103 81.9974 265.69 84.1603L266.13 85.0583ZM302.619 64.1045C302.941 64.4874 302.941 64.4873 302.941 64.4872C302.941 64.4871 302.941 64.4869 302.941 64.4867C302.942 64.4863 302.943 64.4856 302.944 64.4847C302.946 64.4829 302.949 64.4803 302.953 64.4767C302.962 64.4696 302.974 64.4591 302.991 64.4451C303.024 64.4172 303.074 64.3758 303.138 64.3216C303.267 64.2133 303.457 64.0541 303.699 63.8503C304.184 63.4429 304.881 62.8576 305.727 62.1462C307.419 60.7235 309.71 58.7962 312.104 56.7784C316.89 52.7449 322.097 48.3429 323.754 46.8892L323.094 46.1374C321.447 47.5828 316.25 51.9764 311.46 56.0137C309.066 58.0313 306.776 59.9582 305.083 61.3808C304.237 62.0921 303.541 62.6773 303.056 63.0847C302.814 63.2883 302.624 63.4476 302.495 63.5559C302.43 63.61 302.381 63.6514 302.348 63.6793C302.331 63.6932 302.319 63.7038 302.31 63.7109C302.306 63.7144 302.303 63.7171 302.301 63.7188C302.3 63.7197 302.299 63.7204 302.298 63.7208C302.298 63.7211 302.298 63.7212 302.298 63.7214C302.298 63.7215 302.298 63.7215 302.619 64.1045ZM302.701 64.5977L328.438 60.3296L328.275 59.3431L302.537 63.6112L302.701 64.5977ZM307.943 71.1792C303.614 73.1495 293.095 76.3827 283.614 79.1332C278.883 80.5057 274.424 81.7541 271.148 82.6594C269.51 83.112 268.168 83.4788 267.236 83.7325C266.769 83.8593 266.405 83.9578 266.158 84.0246C266.035 84.058 265.94 84.0835 265.877 84.1006C265.845 84.1091 265.821 84.1156 265.805 84.1199C265.797 84.1221 265.791 84.1237 265.787 84.1248C265.785 84.1254 265.783 84.1258 265.782 84.126C265.781 84.1262 265.781 84.1263 265.781 84.1263C265.781 84.1264 265.78 84.1264 265.91 84.6093C266.04 85.0922 266.04 85.0922 266.04 85.0921C266.041 85.092 266.041 85.0919 266.041 85.0918C266.042 85.0915 266.044 85.0911 266.046 85.0905C266.05 85.0894 266.056 85.0878 266.064 85.0856C266.081 85.0813 266.105 85.0748 266.137 85.0662C266.2 85.049 266.295 85.0235 266.419 84.99C266.667 84.923 267.031 84.8244 267.498 84.6974C268.432 84.4435 269.775 84.0763 271.414 83.6233C274.693 82.7172 279.156 81.4677 283.892 80.0936C293.346 77.3511 303.947 74.0967 308.357 72.0894L307.943 71.1792ZM308.357 72.0894C312.757 70.087 317.83 67.1239 321.794 64.6688C323.778 63.4398 325.488 62.3356 326.703 61.5384C327.31 61.1398 327.793 60.8179 328.125 60.5955C328.291 60.4843 328.419 60.3979 328.506 60.3393C328.549 60.31 328.582 60.2876 328.604 60.2725C328.616 60.265 328.624 60.2592 328.63 60.2554C328.632 60.2534 328.635 60.252 328.636 60.251C328.637 60.2505 328.637 60.2501 328.638 60.2498C328.638 60.2497 328.638 60.2496 328.638 60.2495C328.638 60.2495 328.638 60.2494 328.357 59.8363C328.075 59.4232 328.075 59.4233 328.075 59.4233C328.075 59.4234 328.075 59.4234 328.075 59.4235C328.074 59.4238 328.074 59.4241 328.073 59.4245C328.072 59.4254 328.07 59.4268 328.067 59.4287C328.062 59.4324 328.053 59.4379 328.043 59.4453C328.021 59.46 327.988 59.482 327.946 59.511C327.86 59.5688 327.733 59.6544 327.568 59.7648C327.239 59.9856 326.758 60.3057 326.154 60.7024C324.945 61.4959 323.242 62.5953 321.267 63.8186C317.313 66.268 312.283 69.2039 307.943 71.1792L308.357 72.0894ZM325.481 45.6708C329.502 43.9113 339.026 39.1493 347.55 33.6964C351.81 30.9708 355.84 28.0607 358.811 25.256C360.296 23.8538 361.53 22.4656 362.395 21.1279C363.258 19.795 363.78 18.4727 363.78 17.2128H362.78C362.78 18.2028 362.365 19.3336 361.556 20.5847C360.749 21.831 359.577 23.1576 358.124 24.5289C355.22 27.2711 351.25 30.1422 347.011 32.8541C338.535 38.2762 329.058 43.0142 325.08 44.7547L325.481 45.6708ZM363.78 17.2128C363.78 13.9692 362.704 11.6578 360.886 10.1696C359.085 8.69553 356.628 8.08775 353.968 8.08775C348.655 8.08775 342.3 10.5092 337.976 13.8156L338.584 14.6099C342.76 11.4163 348.906 9.08775 353.968 9.08775C356.495 9.08775 358.694 9.66748 360.252 10.9434C361.794 12.2052 362.78 14.2063 362.78 17.2128H363.78ZM325.448 45.6839C347.923 37.6928 365.522 33.4495 377.497 31.2042C383.485 30.0815 388.066 29.4583 391.148 29.1159C392.689 28.9447 393.855 28.8437 394.634 28.7856C395.023 28.7565 395.316 28.7381 395.511 28.7271C395.609 28.7216 395.681 28.7178 395.73 28.7155C395.754 28.7144 395.772 28.7136 395.783 28.7131C395.789 28.7128 395.793 28.7126 395.796 28.7125C395.798 28.7125 395.798 28.7124 395.799 28.7124C395.799 28.7124 395.8 28.7124 395.8 28.7124C395.8 28.7124 395.8 28.7124 395.78 28.2128C395.761 27.7131 395.76 27.7131 395.76 27.7132C395.76 27.7132 395.759 27.7132 395.759 27.7132C395.758 27.7132 395.757 27.7133 395.755 27.7134C395.751 27.7135 395.746 27.7137 395.74 27.714C395.727 27.7146 395.707 27.7155 395.682 27.7167C395.631 27.7191 395.555 27.723 395.454 27.7287C395.254 27.7401 394.955 27.7588 394.559 27.7884C393.768 27.8474 392.59 27.9495 391.037 28.1221C387.932 28.4672 383.325 29.094 377.313 30.2213C365.288 32.476 347.638 36.7327 325.113 44.7416L325.448 45.6839ZM350.586 50.804C343.595 53.7441 336.044 56.6326 328.124 59.2378L328.436 60.1877C336.385 57.573 343.961 54.6748 350.974 51.7258L350.586 50.804ZM350.767 51.7647L367.267 52.2126L367.294 51.2129L350.794 50.765L350.767 51.7647ZM366.919 51.3665L354.919 63.8665L355.641 64.559L367.641 52.059L366.919 51.3665ZM395.78 28.2128C395.509 27.7924 395.509 27.7924 395.509 27.7924C395.509 27.7925 395.509 27.7925 395.509 27.7926C395.509 27.7928 395.508 27.7931 395.508 27.7934C395.507 27.7942 395.505 27.7953 395.502 27.7969C395.498 27.8 395.49 27.8046 395.481 27.8109C395.461 27.8234 395.432 27.8422 395.392 27.8672C395.314 27.9171 395.196 27.9916 395.041 28.0893C394.73 28.2848 394.267 28.5734 393.66 28.9449C392.447 29.6879 390.66 30.7624 388.366 32.0865C383.777 34.7348 377.162 38.3813 369.059 42.3717L369.501 43.2689C377.627 39.2673 384.261 35.61 388.866 32.9526C391.168 31.6238 392.963 30.5449 394.183 29.7977C394.793 29.4241 395.259 29.1334 395.573 28.9359C395.73 28.8372 395.849 28.7617 395.929 28.7108C395.969 28.6854 395.999 28.6661 396.02 28.6531C396.03 28.6466 396.038 28.6416 396.043 28.6383C396.045 28.6366 396.047 28.6354 396.049 28.6345C396.049 28.6341 396.05 28.6337 396.05 28.6335C396.05 28.6334 396.051 28.6333 396.051 28.6332C396.051 28.6332 396.051 28.6331 395.78 28.2128ZM369.059 42.3717C363.535 45.092 357.321 47.9718 350.586 50.804L350.974 51.7258C357.729 48.885 363.962 45.9968 369.501 43.2689L369.059 42.3717ZM369.34 43.3167L386.84 41.2092L386.72 40.2163L369.22 42.3239L369.34 43.3167ZM386.385 40.4067L374.385 55.9067L375.175 56.5188L387.175 41.0188L386.385 40.4067ZM361.389 2.70085C363.551 2.22022 366.218 2.3144 368.584 2.96962C370.964 3.62865 372.937 4.82467 373.843 6.45557L374.717 5.96993C373.623 4.00083 371.346 2.69686 368.851 2.00589C366.342 1.31111 363.509 1.20529 361.172 1.72466L361.389 2.70085ZM373.843 6.45557C374.757 8.10031 374.775 10.1971 374.119 12.1538C373.462 14.1103 372.156 15.8505 370.532 16.7786L371.028 17.6469C372.904 16.575 374.348 14.6153 375.067 12.4717C375.785 10.3284 375.803 7.92519 374.717 5.96993L373.843 6.45557ZM359.563 24.6248C363.552 21.8828 370.894 17.2802 377.784 14.4247C381.235 12.9947 384.529 12.0214 387.214 11.9155C389.893 11.8098 391.841 12.5637 392.838 14.4467L393.722 13.9788C392.469 11.6118 390.042 10.8032 387.174 10.9163C384.312 11.0291 380.888 12.0558 377.401 13.5008C370.417 16.3953 363.009 21.0427 358.997 23.8007L359.563 24.6248ZM392.838 14.4467C393.704 16.0824 393.558 17.6746 392.569 19.2755C391.559 20.9082 389.673 22.5382 387.083 24.132C381.912 27.3143 374.129 30.2361 365.639 32.7331L365.921 33.6924C374.431 31.1895 382.319 28.238 387.607 24.9837C390.247 23.3592 392.289 21.63 393.419 19.8014C394.569 17.941 394.776 15.9699 393.722 13.9788L392.838 14.4467Z" fill="black"/>
<ellipse id="Ellipse 1" cx="324.28" cy="110.713" rx="2" ry="1.5" fill="#D8B624"/>
<ellipse id="Ellipse 2" cx="345.28" cy="110.713" rx="2" ry="1.5" fill="#D8B624"/>
<ellipse id="Ellipse 4" cx="360.78" cy="115.213" rx="1.5" ry="1" fill="#D8B624"/>
<ellipse id="Ellipse 5" cx="386.28" cy="116.713" rx="2" ry="1.5" fill="#D8B624"/>
<ellipse id="Ellipse 3" cx="399.78" cy="121.213" rx="1.5" ry="1" fill="#D8B624"/>
</g>
</g>
<g id="p-132-0-8">
<ellipse id="Ellipse 67_7" cx="256" cy="132" rx="4" ry="1" fill="#EB5757"/>
<rect id="Rectangle 26" x="260" y="132" width="8" height="128" transform="rotate(-180 260 132)" fill="#EB5757"/>
<path id="Ellipse 40" d="M260 4.00006C260 2.9392 259.579 1.92178 258.828 1.17164C258.078 0.42149 257.061 6.19703e-05 256 6.14007e-05C254.939 6.08311e-05 253.922 0.421487 253.172 1.17163C252.421 1.92178 252 2.93919 252 4.00006L260 4.00006Z" fill="#EB5757"/>
</g>
<g id="p-36-0-8">
<ellipse id="Ellipse 68_13" cx="256" cy="36" rx="4" ry="1" fill="#EB5757"/>
<rect id="Rectangle 24" x="260" y="36" width="8" height="32" transform="rotate(-180 260 36)" fill="#EB5757"/>
<path id="Ellipse 38" d="M260 4.00006C260 2.9392 259.579 1.92178 258.828 1.17164C258.078 0.42149 257.061 6.19703e-05 256 6.14007e-05C254.939 6.08311e-05 253.922 0.421487 253.172 1.17163C252.421 1.92178 252 2.93919 252 4.00006L260 4.00006Z" fill="#EB5757"/>
</g>
<g id="p-16-0-32">
<ellipse id="Ellipse 65_6" cx="256" cy="16" rx="16" ry="4" fill="#EB5757"/>
<path id="Ellipse 69_10" d="M272 16C272 11.7565 270.314 7.68687 267.314 4.68629C264.313 1.68571 260.243 3.20373e-07 256 0C251.757 -3.20373e-07 247.687 1.68571 244.686 4.68629C241.686 7.68687 240 11.7565 240 16L272 16Z" fill="#EB5757"/>
</g>
<g id="p-80-0-8">
<ellipse id="Ellipse 68_14" cx="256" cy="80" rx="4" ry="1" fill="#EB5757"/>
<path id="Vector 10_2" d="M246 32C246 6 248.5 0 256 0C263.5 0 266 6 266 32C266 48 260 64 260 80H252C252 64 246 48 246 32Z" fill="#EB5757"/>
</g>
</g>
<defs>
<clipPath id="clip0">
<rect width="726" height="11098" fill="white"/>
</clipPath>
</defs>
</svg>
