<svg width="3297" height="2051" viewBox="0 0 3297 2051" fill="none" xmlns="http://www.w3.org/2000/svg">
<rect width="3297" height="2051" fill="black"/>
<g id="floatParts" clip-path="url(#clip0)">
<rect width="3297" height="2051" fill="white"/>
<g id="p-256-8-128">
<path id="Vector 15" d="M192 256C192 72.2576 252 28.16 252 0H260C260 25.6 320 72.2576 320 256H192Z" fill="#F7E7CA"/>
<ellipse id="Ellipse 29" rx="64" ry="16" transform="matrix(1 0 0 -1 256 256)" fill="#F7E7CA"/>
<ellipse id="Ellipse 30" rx="4" ry="1" transform="matrix(1 0 0 -1 256 0)" fill="#202020"/>
</g>
<g id="p-512-8-">
<rect id="Rectangle 24" x="252" width="8" height="512" fill="#202020"/>
<circle id="Ellipse 31" cx="256" cy="512" r="4" fill="#202020"/>
<ellipse id="Ellipse 32" cx="256" rx="4" ry="1" fill="#F04B40"/>
</g>
<g id="p-256-128-8">
<ellipse id="Ellipse 30_2" cx="256" cy="256" rx="4" ry="1" fill="#F7E7CA"/>
<path id="Vector 15_2" d="M192 0C192 183.742 252 227.84 252 256H260C260 230.4 320 183.742 320 0H192Z" fill="#F7E7CA"/>
<ellipse id="Ellipse 29_2" cx="256" rx="64" ry="16" fill="#202020"/>
</g>
<g id="p-512-8-0">
<rect id="Rectangle 28" x="252" y="6.10352e-05" width="8" height="512" fill="#202020"/>
<path id="Ellipse 36" d="M260 6.10352e-05C260 -0.265155 259.579 -0.519509 258.828 -0.707046C258.078 -0.894582 257.061 -0.999939 256 -0.999939C254.939 -0.999939 253.922 -0.894582 253.172 -0.707046C252.421 -0.519509 252 -0.265156 252 6.08563e-05L260 6.10352e-05Z" fill="#202020"/>
<path id="Ellipse 42" d="M252 512C252 513.061 252.421 514.078 253.172 514.828C253.922 515.579 254.939 516 256 516C257.061 516 258.078 515.579 258.828 514.828C259.579 514.078 260 513.061 260 512L252 512Z" fill="#202020"/>
</g>
<g id="p-256-8-0">
<rect id="Rectangle 27" x="252" y="6.10352e-05" width="8" height="256" fill="#202020"/>
<path id="Ellipse 35" d="M260 6.10352e-05C260 -0.265155 259.579 -0.519509 258.828 -0.707046C258.078 -0.894582 257.061 -0.999939 256 -0.999939C254.939 -0.999939 253.922 -0.894582 253.172 -0.707046C252.421 -0.519509 252 -0.265156 252 6.08563e-05L260 6.10352e-05Z" fill="#202020"/>
<path id="Ellipse 41" d="M252 256C252 257.061 252.421 258.078 253.172 258.828C253.922 259.579 254.939 260 256 260C257.061 260 258.078 259.579 258.828 258.828C259.579 258.078 260 257.061 260 256L252 256Z" fill="#202020"/>
</g>
<g id="p-256-8-8">
<path id="Ellipse 83" d="M260 256C260 256.265 259.579 256.52 258.828 256.707C258.078 256.895 257.061 257 256 257C254.939 257 253.922 256.895 253.172 256.707C252.421 256.52 252 256.265 252 256L260 256Z" fill="#FC4465"/>
<path id="Ellipse 82" d="M252 6.03358e-05C252 -0.265156 252.421 -0.51951 253.172 -0.707046C253.922 -0.894583 254.939 -0.999939 256 -0.999939C257.061 -0.999939 258.078 -0.894582 258.828 -0.707046C259.579 -0.51951 260 -0.265156 260 6.08842e-05L252 6.03358e-05Z" fill="#FC4465"/>
<rect id="Rectangle 51" x="252" y="6.10352e-05" width="8" height="256" fill="#FC4465"/>
</g>
<g id="P-256-128-8">
<path id="Ellipse 64" d="M192 2.74648e-05C192 -4.24344 198.743 -8.3131 210.745 -11.3137C222.748 -14.3143 239.026 -16 256 -16C272.974 -16 289.253 -14.3142 301.255 -11.3137C313.257 -8.31307 320 -4.2434 320 5.86192e-05L192 2.74648e-05Z" fill="#202020"/>
<path id="Ellipse 65" d="M260 256C260 256.265 259.579 256.52 258.828 256.707C258.078 256.895 257.061 257 256 257C254.939 257 253.922 256.895 253.172 256.707C252.421 256.52 252 256.265 252 256L260 256Z" fill="#202020"/>
<path id="Vector 17" d="M320 3.05176e-05C320 132 260 240 260 256L252 256C252 240 192 132.5 192 -3.05277e-06L320 3.05176e-05Z" fill="#202020"/>
</g>
<g id="p-128-128-32">
<path id="Ellipse 80" d="M192 7.22253e-05C192 -4.24339 198.743 -8.31305 210.745 -11.3136C222.747 -14.3142 239.026 -15.9999 256 -15.9999C272.974 -15.9999 289.252 -14.3142 301.255 -11.3136C313.257 -8.31307 320 -4.2434 320 5.86192e-05L192 7.22253e-05Z" fill="#B7C7B0"/>
<path id="Ellipse 81" d="M272 128C272 129.061 270.314 130.078 267.314 130.828C264.313 131.579 260.243 132 256 132C251.757 132 247.687 131.579 244.686 130.828C241.686 130.078 240 129.061 240 128L272 128Z" fill="#B7C7B0"/>
<path id="Vector 21" d="M272 128C272 96.0001 320 48.0001 320 4.57764e-05L192 5.69665e-05C192 48.0001 240 96.0001 240 128L272 128Z" fill="#B7C7B0"/>
</g>
<g id="p-128-128-8">
<path id="Ellipse 81_2" d="M260 128C260 128.265 259.579 128.52 258.828 128.707C258.078 128.895 257.061 129 256 129C254.939 129 253.922 128.895 253.172 128.707C252.421 128.52 252 128.265 252 128L260 128Z" fill="#F7E7CA"/>
<path id="Ellipse 80_2" d="M192 4.9845e-05C192 -4.24341 198.743 -8.31308 210.745 -11.3137C222.747 -14.3142 239.026 -15.9999 256 -15.9999C272.974 -15.9999 289.253 -14.3142 301.255 -11.3137C313.257 -8.31307 320 -4.2434 320 5.86192e-05L192 4.9845e-05Z" fill="#F7E7CA"/>
<path id="Vector 3" d="M192 6.10352e-05C192 58.6405 252 82.207 252 128H260C260 82.207 320 59.271 320 6.10352e-05H192Z" fill="#F7E7CA"/>
</g>
<g id="p-128-64-32">
<path id="Ellipse 70" d="M224 5.54401e-05C224 -2.12168 227.371 -4.15651 233.373 -5.6568C239.374 -7.15709 247.513 -7.99994 256 -7.99994C264.487 -7.99994 272.626 -7.15709 278.627 -5.65679C284.629 -4.1565 288 -2.12167 288 5.98272e-05L224 5.54401e-05Z" fill="#6FCF97"/>
<path id="Ellipse 81_3" d="M272 128C272 129.061 270.314 130.078 267.314 130.828C264.313 131.579 260.243 132 256 132C251.757 132 247.687 131.579 244.686 130.828C241.686 130.078 240 129.061 240 128L272 128Z" fill="#6FCF97"/>
<path id="Vector 20" d="M264 68C264 100 272 112 272 128L240 128C240 112 248 100 248 68C248 36 224 16 224 2.49225e-05L288 3.05176e-05C288 16 264 36 264 68Z" fill="#6FCF97"/>
</g>
<g id="p-128-32-64">
<path id="Ellipse 70_2" d="M288 128C288 130.122 284.629 132.157 278.627 133.657C272.626 135.157 264.487 136 256 136C247.513 136 239.374 135.157 233.373 133.657C227.371 132.157 224 130.122 224 128L288 128Z" fill="#6FCF97"/>
<path id="Ellipse 81_4" d="M240 5.82376e-05C240 -1.06081 241.686 -2.07822 244.686 -2.82837C247.687 -3.57851 251.757 -3.99994 256 -3.99994C260.243 -3.99994 264.313 -3.57851 267.314 -2.82837C270.314 -2.07822 272 -1.06081 272 6.04312e-05L240 5.82376e-05Z" fill="#6FCF97"/>
<path id="Vector 20_2" d="M248 60.0001C248 28.0001 240 16.0001 240 6.10352e-05H272C272 16.0001 264 28.0001 264 60.0001C264 92.0001 288 112 288 128H224C224 112 248 92.0001 248 60.0001Z" fill="#6FCF97"/>
</g>
<g id="p-64-64-8">
<path id="Ellipse 81_5" d="M260 64.0001C260 64.2653 259.579 64.5196 258.828 64.7072C258.078 64.8947 257.061 65.0001 256 65.0001C254.939 65.0001 253.922 64.8947 253.172 64.7072C252.421 64.5196 252 64.2653 252 64.0001L260 64.0001Z" fill="#F04B40"/>
<path id="Ellipse 80_3" d="M224 5.54401e-05C224 -2.12167 227.371 -4.1565 233.373 -5.65679C239.374 -7.15708 247.513 -7.99994 256 -7.99994C264.487 -7.99994 272.626 -7.15708 278.627 -5.65679C284.629 -4.1565 288 -2.12167 288 5.98272e-05L224 5.54401e-05Z" fill="#F04B40"/>
<path id="Vector 19" d="M252 64.0001C252 32.0001 224 56.0001 224 6.10352e-05H288C288 56.0001 260 32.0001 260 64.0001H252Z" fill="#F04B40"/>
</g>
<g id="p-128-32-8">
<path id="Ellipse 81_6" d="M260 128C260 128.265 259.579 128.52 258.828 128.707C258.078 128.895 257.061 129 256 129C254.939 129 253.922 128.895 253.172 128.707C252.421 128.52 252 128.265 252 128L260 128Z" fill="#F04B40"/>
<path id="Ellipse 80_4" d="M240 5.82376e-05C240 -1.06081 241.686 -2.07822 244.686 -2.82837C247.687 -3.57851 251.757 -3.99994 256 -3.99994C260.243 -3.99994 264.313 -3.57851 267.314 -2.82837C270.314 -2.07822 272 -1.06081 272 6.04312e-05L240 5.82376e-05Z" fill="#F04B40"/>
<path id="Vector 19_2" d="M252 128C252 64.0001 240 128 240 6.10352e-05H272C272 128 260 64.0001 260 128H252Z" fill="#F04B40"/>
</g>
<g id="p-128-8-128">
<path id="Ellipse 64_2" d="M320 128C320 132.244 313.257 136.313 301.255 139.314C289.253 142.314 272.974 144 256 144C239.026 144 222.747 142.314 210.745 139.314C198.743 136.313 192 132.244 192 128L320 128Z" fill="#F7E7CA"/>
<path id="Ellipse 65_2" d="M252 6.03358e-05C252 -0.265156 252.421 -0.51951 253.172 -0.707046C253.922 -0.894583 254.939 -0.999939 256 -0.999939C257.061 -0.999939 258.078 -0.894582 258.828 -0.707046C259.579 -0.51951 260 -0.265156 260 6.08842e-05L252 6.03358e-05Z" fill="#F7E7CA"/>
<path id="Vector 17_2" d="M192 128C192 120 252 120 252 6.10352e-05H260C260 120 320 120 320 128H192Z" fill="#F7E7CA"/>
</g>
<g id="p-128-8-32">
<path id="Ellipse 82_2" d="M252 6.03358e-05C252 -0.265156 252.421 -0.51951 253.172 -0.707046C253.922 -0.894583 254.939 -0.999939 256 -0.999939C257.061 -0.999939 258.078 -0.894582 258.828 -0.707046C259.579 -0.51951 260 -0.265156 260 6.08842e-05L252 6.03358e-05Z" fill="#F04B40"/>
<path id="Ellipse 83_2" d="M272 128C272 129.061 270.314 130.078 267.314 130.828C264.313 131.579 260.243 132 256 132C251.757 132 247.687 131.579 244.686 130.828C241.686 130.078 240 129.061 240 128L272 128Z" fill="#F04B40"/>
<path id="Vector 20_3" d="M260 5.99861e-05C260 64.0001 272 6.10352e-05 272 128L240 128C240 5.82376e-05 252 64.0001 252 5.92867e-05L260 5.99861e-05Z" fill="#F04B40"/>
</g>
<g id="p-128-8-8">
<path id="Ellipse 80_5" d="M252 6.03358e-05C252 -0.265156 252.421 -0.51951 253.172 -0.707046C253.922 -0.894583 254.939 -0.999939 256 -0.999939C257.061 -0.999939 258.078 -0.894582 258.828 -0.707046C259.579 -0.51951 260 -0.265156 260 6.08842e-05L252 6.03358e-05Z" fill="#C4F536"/>
<rect id="Rectangle 10" x="246" y="6.10352e-05" width="8" height="128" fill="#C4F536"/>
<path id="Ellipse 75" d="M260 128C260 128.265 259.579 128.52 258.828 128.707C258.078 128.895 257.061 129 256 129C254.939 129 253.922 128.895 253.172 128.707C252.421 128.52 252 128.265 252 128L260 128Z" fill="#C4F536"/>
</g>
<g id="p-32-128-64">
<path id="Ellipse 81_7" d="M288 64.0001C288 66.1218 284.629 68.1566 278.627 69.6569C272.626 71.1572 264.487 72.0001 256 72.0001C247.513 72.0001 239.374 71.1572 233.373 69.6569C227.371 68.1566 224 66.1218 224 64.0001L288 64.0001Z" fill="#BCB97F"/>
<path id="Ellipse 80_6" d="M192 4.9845e-05C192 -4.24341 198.743 -8.31308 210.745 -11.3137C222.747 -14.3142 239.026 -15.9999 256 -15.9999C272.974 -15.9999 289.253 -14.3142 301.255 -11.3137C313.257 -8.31307 320 -4.2434 320 5.86192e-05L192 4.9845e-05Z" fill="#BCB97F"/>
<path id="Vector 21_2" d="M288 64.0001C288 44.8001 320 44.8001 320 7.24792e-05L192 6.12891e-05C192 44.8001 224 44.8001 224 64.0001L288 64.0001Z" fill="#BCB97F"/>
</g>
<g id="p-64-64-32">
<path id="Ellipse 81_8" d="M272 64.0001C272 65.0609 270.314 66.0783 267.314 66.8285C264.313 67.5786 260.243 68.0001 256 68.0001C251.757 68.0001 247.687 67.5786 244.686 66.8285C241.686 66.0783 240 65.0609 240 64.0001L272 64.0001Z" fill="#F2994A"/>
<path id="Ellipse 80_7" d="M224 5.54401e-05C224 -2.12168 227.371 -4.15651 233.373 -5.6568C239.374 -7.15709 247.513 -7.99994 256 -7.99994C264.487 -7.99994 272.626 -7.15709 278.627 -5.65679C284.629 -4.1565 288 -2.12167 288 5.98272e-05L224 5.54401e-05Z" fill="#F2994A"/>
<path id="Vector 23" d="M288 6.10352e-05L272 64.0001H240L224 6.10352e-05H288Z" fill="#F2994A"/>
</g>
<g id="p-64-32-32">
<path id="Ellipse 80_8" d="M272 64.0001C272 65.0609 270.314 66.0783 267.314 66.8285C264.313 67.5786 260.243 68.0001 256 68.0001C251.757 68.0001 247.687 67.5786 244.686 66.8285C241.686 66.0783 240 65.0609 240 64.0001L272 64.0001Z" fill="#187169"/>
<path id="Ellipse 81_9" d="M240 5.82376e-05C240 -1.06081 241.686 -2.07822 244.686 -2.82837C247.687 -3.57851 251.757 -3.99994 256 -3.99994C260.243 -3.99994 264.313 -3.57851 267.314 -2.82837C270.314 -2.07822 272 -1.06081 272 6.04312e-05L240 5.82376e-05Z" fill="#187169"/>
<rect id="Rectangle 45" x="240" y="6.10352e-05" width="32" height="64" fill="#187169"/>
</g>
<g id="p-64-8-32">
<path id="Ellipse 81_10" d="M272 64.0001C272 65.0609 270.314 66.0783 267.314 66.8285C264.313 67.5786 260.243 68.0001 256 68.0001C251.757 68.0001 247.687 67.5786 244.686 66.8285C241.686 66.0783 240 65.0609 240 64.0001L272 64.0001Z" fill="#F7E7CA"/>
<path id="Ellipse 80_9" d="M252 6.03358e-05C252 -0.265156 252.421 -0.51951 253.172 -0.707046C253.922 -0.894583 254.939 -0.999939 256 -0.999939C257.061 -0.999939 258.078 -0.894582 258.828 -0.707046C259.579 -0.51951 260 -0.265156 260 6.08842e-05L252 6.03358e-05Z" fill="#F7E7CA"/>
<path id="Vector 22" d="M240 64.0001C240 32.0001 252 32.0001 252 6.10352e-05H260C260 32.0001 272 32.0001 272 64.0001H240Z" fill="#F7E7CA"/>
</g>
<g id="p-62-128-8">
<path id="Ellipse 50" d="M192 4.9845e-05C192 -4.24341 198.743 -8.31308 210.745 -11.3137C222.747 -14.3142 239.026 -15.9999 256 -15.9999C272.974 -15.9999 289.253 -14.3142 301.255 -11.3137C313.257 -8.31307 320 -4.2434 320 5.86192e-05L192 4.9845e-05Z" fill="#E0E0E0"/>
<path id="Ellipse 51" d="M192 4.9845e-05C192 8.40465 193.655 16.727 196.872 24.4918C200.088 32.2566 204.802 39.3119 210.745 45.2549C216.688 51.1978 223.743 55.912 231.508 59.1283C239.273 62.3446 247.595 64.0001 256 64.0001C264.405 64.0001 272.727 62.3446 280.492 59.1283C288.257 55.912 295.312 51.1978 301.255 45.2549C307.198 39.3119 311.912 32.2566 315.128 24.4918C318.345 16.727 320 8.40465 320 5.34058e-05L192 4.9845e-05Z" fill="#E0E0E0"/>
<g id="284">
<ellipse id="Ellipse 2" rx="4" ry="1" transform="matrix(-1 -8.74228e-08 -8.74228e-08 1 256 62.0001)" fill="#E0E0E0"/>
</g>
</g>
<g id="p-62-8-128">
<path id="Ellipse 2_2" d="M320 62.0001C320 66.2435 313.257 70.3132 301.255 73.3138C289.253 76.3144 272.974 78.0001 256 78.0001C239.026 78.0001 222.747 76.3144 210.745 73.3138C198.743 70.3132 192 66.2435 192 62.0001L320 62.0001Z" fill="#F04B40"/>
<path id="Ellipse 49" d="M320 62.0001C320 53.5955 318.345 45.2732 315.128 37.5083C311.912 29.7435 307.198 22.6882 301.255 16.7452C295.312 10.8023 288.257 6.08807 280.492 2.87177C272.727 -0.344531 264.405 -1.99994 256 -1.99994C247.595 -1.99994 239.273 -0.344529 231.508 2.87177C223.743 6.08807 216.688 10.8023 210.745 16.7452C204.802 22.6882 200.088 29.7435 196.872 37.5083C193.655 45.2732 192 53.5955 192 62.0001L320 62.0001Z" fill="#F04B40"/>
<g id="269">
<ellipse id="Ellipse 2_3" rx="4" ry="1" transform="matrix(1 0 0 -1 256 6.10352e-05)" fill="#F04B40"/>
</g>
</g>
<g id="p-32-256-256">
<path id="Ellipse 81_11" d="M320 32.0001C320 36.2435 313.257 40.3132 301.255 43.3138C289.253 46.3144 272.974 48.0001 256 48.0001C239.026 48.0001 222.747 46.3144 210.745 43.3138C198.743 40.3132 192 36.2435 192 32.0001L320 32.0001Z" fill="#EF8996"/>
<path id="Ellipse 80_10" d="M192 4.9845e-05C192 -4.24341 198.743 -8.31308 210.745 -11.3137C222.747 -14.3142 239.026 -15.9999 256 -15.9999C272.974 -15.9999 289.253 -14.3142 301.255 -11.3137C313.257 -8.31307 320 -4.2434 320 5.86192e-05L192 4.9845e-05Z" fill="#EF8996"/>
<rect id="Rectangle 48" x="192" y="6.10352e-05" width="128" height="32" fill="#EF8996"/>
</g>
<g id="p-32-64-128">
<path id="Ellipse 81_12" d="M224 5.54401e-05C224 -2.12167 227.371 -4.1565 233.373 -5.65679C239.374 -7.15708 247.513 -7.99994 256 -7.99994C264.487 -7.99994 272.626 -7.15708 278.627 -5.65679C284.629 -4.1565 288 -2.12167 288 5.98272e-05L224 5.54401e-05Z" fill="#BCB97F"/>
<path id="Ellipse 80_11" d="M320 32.0001C320 36.2435 313.257 40.3132 301.255 43.3138C289.253 46.3144 272.974 48.0001 256 48.0001C239.026 48.0001 222.747 46.3144 210.745 43.3138C198.743 40.3132 192 36.2435 192 32.0001L320 32.0001Z" fill="#BCB97F"/>
<path id="Vector 21_3" d="M224 6.10352e-05C224 9.60006 192 9.60006 192 32.0001H320C320 9.60006 288 9.60006 288 6.10352e-05H224Z" fill="#BCB97F"/>
</g>
<g id="p-32-64-64">
<path id="Ellipse 82_3" d="M288 32.0001C288 34.1218 284.629 36.1566 278.627 37.6569C272.626 39.1572 264.487 40.0001 256 40.0001C247.513 40.0001 239.374 39.1572 233.373 37.6569C227.371 36.1566 224 34.1218 224 32.0001L288 32.0001Z" fill="#EBAC5B"/>
<path id="Ellipse 80_12" d="M224 5.54401e-05C224 -2.12168 227.371 -4.15651 233.373 -5.6568C239.374 -7.15709 247.513 -7.99994 256 -7.99994C264.487 -7.99994 272.626 -7.15709 278.627 -5.65679C284.629 -4.1565 288 -2.12167 288 5.98272e-05L224 5.54401e-05Z" fill="#EBAC5B"/>
<rect id="Rectangle 50" x="224" y="6.10352e-05" width="64" height="32" fill="#EBAC5B"/>
</g>
<g id="p-32-32-128">
<path id="Ellipse 80_13" d="M320 32.0001C320 36.2435 313.257 40.3132 301.255 43.3138C289.253 46.3144 272.974 48.0001 256 48.0001C239.026 48.0001 222.747 46.3144 210.745 43.3138C198.743 40.3132 192 36.2435 192 32.0001L320 32.0001Z" fill="#B7C7B0"/>
<path id="Ellipse 81_13" d="M240 5.82376e-05C240 -1.06081 241.686 -2.07822 244.686 -2.82837C247.687 -3.57851 251.757 -3.99994 256 -3.99994C260.243 -3.99994 264.313 -3.57851 267.314 -2.82837C270.314 -2.07822 272 -1.06081 272 6.04312e-05L240 5.82376e-05Z" fill="#B7C7B0"/>
<path id="Vector 21_4" d="M240 6.10352e-05C240 16.0001 192 6.00006 192 32.0001H320C320 6.00006 272 16.0001 272 6.10352e-05H240Z" fill="#B7C7B0"/>
</g>
<g id="p-32-32-32">
<path id="Ellipse 80_14" d="M272 32.0001C272 33.0609 270.314 34.0783 267.314 34.8285C264.313 35.5786 260.243 36.0001 256 36.0001C251.757 36.0001 247.687 35.5786 244.686 34.8285C241.686 34.0783 240 33.0609 240 32.0001L272 32.0001Z" fill="#8E4D3C"/>
<path id="Ellipse 81_14" d="M240 5.82376e-05C240 -1.06081 241.686 -2.07822 244.686 -2.82837C247.687 -3.57851 251.757 -3.99994 256 -3.99994C260.243 -3.99994 264.313 -3.57851 267.314 -2.82837C270.314 -2.07822 272 -1.06081 272 6.04312e-05L240 5.82376e-05Z" fill="#8E4D3C"/>
<rect id="Rectangle 46" x="240" y="6.10352e-05" width="32" height="32" fill="#8E4D3C"/>
</g>
<g id="p-32-8-64">
<path id="Ellipse 81_15" d="M288 32.0001C288 34.1218 284.629 36.1566 278.627 37.6569C272.626 39.1572 264.487 40.0001 256 40.0001C247.513 40.0001 239.374 39.1572 233.373 37.6569C227.371 36.1566 224 34.1218 224 32.0001L288 32.0001Z" fill="#F04B40"/>
<path id="Ellipse 80_15" d="M252 6.03358e-05C252 -0.265156 252.421 -0.51951 253.172 -0.707046C253.922 -0.894583 254.939 -0.999939 256 -0.999939C257.061 -0.999939 258.078 -0.894582 258.828 -0.707046C259.579 -0.51951 260 -0.265156 260 6.08842e-05L252 6.03358e-05Z" fill="#F04B40"/>
<path id="Vector 8" d="M224 32.0001C224 16.9057 252 9.05667 251.999 6.10352e-05H259.999C259.999 9.05667 288 16.9057 288 32.0001H224Z" fill="#F04B40"/>
</g>
<g id="p-16-256-256">
<path id="Ellipse 82_4" d="M320 16.0001C320 20.2435 313.257 24.3132 301.255 27.3138C289.253 30.3144 272.974 32.0001 256 32.0001C239.026 32.0001 222.747 30.3144 210.745 27.3138C198.743 24.3132 192 20.2435 192 16.0001L320 16.0001Z" fill="#E6DDC0"/>
<path id="Ellipse 83_3" d="M192 4.9845e-05C192 -4.24341 198.743 -8.31308 210.745 -11.3137C222.747 -14.3142 239.026 -15.9999 256 -15.9999C272.974 -15.9999 289.253 -14.3142 301.255 -11.3137C313.257 -8.31307 320 -4.2434 320 5.86192e-05L192 4.9845e-05Z" fill="#E6DDC0"/>
<rect id="Rectangle 49" x="192" y="6.10352e-05" width="128" height="16" fill="#E6DDC0"/>
</g>
<g id="p-16-64-64">
<path id="Ellipse 73" d="M288 16.0001C288 18.1218 284.629 20.1566 278.627 21.6569C272.626 23.1572 264.487 24.0001 256 24.0001C247.513 24.0001 239.374 23.1572 233.373 21.6569C227.371 20.1566 224 18.1218 224 16.0001L288 16.0001Z" fill="#C4F536"/>
<path id="Ellipse 80_16" d="M224 5.54401e-05C224 -2.12168 227.371 -4.15651 233.373 -5.6568C239.374 -7.15709 247.513 -7.99994 256 -7.99994C264.487 -7.99994 272.626 -7.15709 278.627 -5.65679C284.629 -4.1565 288 -2.12167 288 5.98272e-05L224 5.54401e-05Z" fill="#C4F536"/>
<rect id="Rectangle 47" x="224" y="6.10352e-05" width="64" height="16" fill="#C4F536"/>
</g>
<g id="p-16-0-32">
<path id="Ellipse 69" d="M272 16.0001C272 11.7566 270.314 7.68693 267.314 4.68635C264.313 1.68577 260.243 6.13555e-05 256 6.10352e-05C251.757 6.07148e-05 247.687 1.68577 244.686 4.68635C241.686 7.68693 240 11.7566 240 16.0001L272 16.0001Z" fill="#F04B40"/>
<path id="Ellipse 71" d="M272 16.0001C272 17.0609 270.314 18.0783 267.314 18.8285C264.313 19.5786 260.243 20.0001 256 20.0001C251.757 20.0001 247.687 19.5786 244.686 18.8285C241.686 18.0783 240 17.0609 240 16.0001L272 16.0001Z" fill="#F04B40"/>
</g>
<g id="p-4-128-128">
<rect id="Rectangle 33" x="192" y="6.10352e-05" width="128" height="4" fill="#202020"/>
<path id="Ellipse 59" d="M320 4.00006C320 8.24352 313.257 12.3132 301.255 15.3138C289.253 18.3144 272.974 20.0001 256 20.0001C239.026 20.0001 222.747 18.3144 210.745 15.3138C198.743 12.3132 192 8.24353 192 4.00006L320 4.00006Z" fill="#202020"/>
<path id="Ellipse 60" d="M192 4.9845e-05C192 -4.24341 198.743 -8.31308 210.745 -11.3137C222.747 -14.3142 239.026 -15.9999 256 -15.9999C272.974 -15.9999 289.253 -14.3142 301.255 -11.3137C313.257 -8.31307 320 -4.2434 320 5.86192e-05L192 4.9845e-05Z" fill="#202020"/>
</g>
<g id="p-4-64-64">
<path id="Ellipse 68" d="M288 4.00006C288 6.12179 284.629 8.15662 278.627 9.65692C272.626 11.1572 264.487 12.0001 256 12.0001C247.513 12.0001 239.374 11.1572 233.373 9.65692C227.371 8.15663 224 6.12179 224 4.00006L288 4.00006Z" fill="#202020"/>
<path id="Ellipse 67" d="M224 5.54401e-05C224 -2.12168 227.371 -4.15651 233.373 -5.6568C239.374 -7.15709 247.513 -7.99994 256 -7.99994C264.487 -7.99994 272.626 -7.15709 278.627 -5.65679C284.629 -4.1565 288 -2.12167 288 5.98272e-05L224 5.54401e-05Z" fill="#202020"/>
<rect id="Rectangle 34" x="224" y="6.10352e-05" width="64" height="4" fill="#202020"/>
</g>
<g id="p-4-32-32">
<path id="Ellipse 66" d="M272 4.00006C272 5.06093 270.314 6.07834 267.314 6.82849C264.313 7.57863 260.243 8.00006 256 8.00006C251.757 8.00006 247.687 7.57863 244.686 6.82849C241.686 6.07834 240 5.06093 240 4.00006L272 4.00006Z" fill="#202020"/>
<path id="Ellipse 65_3" d="M240 5.82376e-05C240 -1.06081 241.686 -2.07822 244.686 -2.82837C247.687 -3.57851 251.757 -3.99994 256 -3.99994C260.243 -3.99994 264.313 -3.57851 267.314 -2.82837C270.314 -2.07822 272 -1.06081 272 6.04312e-05L240 5.82376e-05Z" fill="#202020"/>
<rect id="Rectangle 35" x="240" y="6.10352e-05" width="32" height="4" fill="#202020"/>
</g>
<g id="p-4-8-8">
<path id="Ellipse 64_3" d="M260 4.00006C260 4.26528 259.579 4.51963 258.828 4.70717C258.078 4.8947 257.061 5.00006 256 5.00006C254.939 5.00006 253.922 4.8947 253.172 4.70717C252.421 4.51963 252 4.26528 252 4.00006L260 4.00006Z" fill="#202020"/>
<path id="Ellipse 63" d="M252 6.03358e-05C252 -0.265156 252.421 -0.51951 253.172 -0.707046C253.922 -0.894583 254.939 -0.999939 256 -0.999939C257.061 -0.999939 258.078 -0.894582 258.828 -0.707046C259.579 -0.51951 260 -0.265156 260 6.08842e-05L252 6.03358e-05Z" fill="#202020"/>
<rect id="Rectangle 36" x="252" y="6.10352e-05" width="8" height="4" fill="#202020"/>
</g>
<g id="p-132-0-8">
<rect id="Rectangle 26" x="260" y="132" width="8" height="128" transform="rotate(-180 260 132)" fill="#F04B40"/>
<path id="Ellipse 34" d="M252 132C252 132.265 252.421 132.52 253.172 132.707C253.922 132.895 254.939 133 256 133C257.061 133 258.078 132.895 258.828 132.707C259.579 132.52 260 132.265 260 132L252 132Z" fill="#F04B40"/>
<path id="Ellipse 40" d="M260 4.00006C260 2.9392 259.579 1.92178 258.828 1.17164C258.078 0.42149 257.061 6.19445e-05 256 6.14007e-05C254.939 6.08569e-05 253.922 0.421487 253.172 1.17163C252.421 1.92178 252 2.93919 252 4.00006L260 4.00006Z" fill="#F04B40"/>
</g>
<g id="p-80-0-8">
<path id="Ellipse 8" d="M260 80.0001C260 80.1314 259.897 80.2614 259.696 80.3827C259.494 80.5041 259.2 80.6143 258.828 80.7072C258.457 80.8 258.016 80.8737 257.531 80.9239C257.045 80.9742 256.525 81.0001 256 81.0001C255.475 81.0001 254.955 80.9742 254.469 80.9239C253.984 80.8737 253.543 80.8 253.172 80.7072C252.8 80.6143 252.506 80.5041 252.304 80.3827C252.103 80.2614 252 80.1314 252 80.0001L256 80.0001H260Z" fill="#F04B40"/>
<path id="Vector 10" d="M240 33.8029C240 14.6479 247 6.10352e-05 256 6.10352e-05C265 6.10352e-05 272 14.6479 272 33.8029C272 72.4706 260 76.2354 260 80.0001H252C252 76.2354 240 72.0001 240 33.8029Z" fill="#F04B40"/>
</g>
<g id="p-36-0-8">
<rect id="Rectangle 24_2" x="260" y="36.0001" width="8" height="32" transform="rotate(-180 260 36.0001)" fill="#F04B40"/>
<path id="Ellipse 32_2" d="M252 36.0001C252 36.2653 252.421 36.5196 253.172 36.7072C253.922 36.8947 254.939 37.0001 256 37.0001C257.061 37.0001 258.078 36.8947 258.828 36.7072C259.579 36.5196 260 36.2653 260 36.0001L252 36.0001Z" fill="#F04B40"/>
<path id="Ellipse 38" d="M260 4.00006C260 2.9392 259.579 1.92178 258.828 1.17164C258.078 0.42149 257.061 6.19445e-05 256 6.14007e-05C254.939 6.08569e-05 253.922 0.421487 253.172 1.17163C252.421 1.92178 252 2.93919 252 4.00006L260 4.00006Z" fill="#F04B40"/>
</g>
<g id="p-96-8-128">
<path id="Ellipse 82_5" d="M320 96C320 100.243 313.257 104.313 301.255 107.314C289.253 110.314 272.974 112 256 112C239.026 112 222.747 110.314 210.745 107.314C198.743 104.313 192 100.243 192 96L320 96Z" fill="#F04B40"/>
<path id="Vector 2" d="M192 96C192 49.5 252 42 252 0H260C260 42 320 49.5 320 96H192Z" fill="#F04B40"/>
</g>
<g id="p-96-32-128">
<path id="Ellipse 83_4" d="M320 96C320 100.243 313.257 104.313 301.255 107.314C289.253 110.314 272.974 112 256 112C239.026 112 222.747 110.314 210.745 107.314C198.743 104.313 192 100.243 192 96L320 96Z" fill="#F04B40"/>
<path id="Vector 2_2" d="M192 96.0003C192 48.0003 240 36.0003 240 0.000281228C240 0.000281228 240 4.3869e-05 272 0.000281228C272 36.0002 320 48.0003 320 96.0003H192Z" fill="#F04B40"/>
</g>
<g id="p-0-0-0">
<path id="Subtract" fill-rule="evenodd" clip-rule="evenodd" d="M256 65C397.385 65 512 36.3462 512 1C512 -34.3462 397.385 -63 256 -63C114.615 -63 0 -34.3462 0 1C0 36.3462 114.615 65 256 65ZM256 55.25C375.846 55.25 473 30.9614 473 1C473 -28.9614 375.846 -53.25 256 -53.25C136.154 -53.25 39 -28.9614 39 1C39 30.9614 136.154 55.25 256 55.25Z" fill="#202020"/>
</g>
<g id="p-64-8-128">
<path id="Ellipse 27" d="M320 64C320 66.1012 318.345 68.1817 315.128 70.1229C311.912 72.0641 307.198 73.828 301.255 75.3137C295.312 76.7994 288.257 77.978 280.492 78.7821C272.727 79.5861 264.405 80 256 80C247.595 80 239.273 79.5861 231.508 78.7821C223.743 77.978 216.688 76.7994 210.745 75.3137C204.802 73.828 200.088 72.0641 196.872 70.1229C193.655 68.1817 192 66.1011 192 64L256 64H320Z" fill="#F04B40"/>
<path id="Vector 15_3" d="M192 64C192 26 252 37.6839 252 0H260C260 37.6839 320 26 320 64H192Z" fill="#F04B40"/>
<ellipse id="Ellipse 28" cx="256" rx="4" ry="1" fill="#202020"/>
</g>
<g id="p-128--8">
<ellipse id="Ellipse 26" rx="4" ry="1" transform="matrix(-1 0 0 1 256 128)" fill="#BCB97F"/>
<rect id="Rectangle 20" width="8" height="128" transform="matrix(-1 0 0 1 260 0)" fill="#BCB97F"/>
<ellipse id="Ellipse 25" rx="4" ry="1" transform="matrix(-1 0 0 1 256 0)" fill="#BCB97F"/>
</g>
<g id="p-64-128-8">
<path id="Vector 15_4" d="M192 0C192 38 252 26.3161 252 64H260C260 26.3161 320 38 320 0H192Z" fill="#F04B40"/>
<ellipse id="Ellipse 28_2" rx="4" ry="1" transform="matrix(1 0 0 -1 256 64)" fill="#F04B40"/>
<path id="Ellipse 29_3" d="M192 0C192 2.10115 193.655 4.18173 196.872 6.12293C200.088 8.06414 204.802 9.82797 210.745 11.3137C216.688 12.7994 223.743 13.978 231.508 14.7821C239.273 15.5861 247.595 16 256 16C264.405 16 272.727 15.5861 280.492 14.7821C288.257 13.978 295.312 12.7994 301.255 11.3137C307.198 9.82797 311.912 8.06414 315.128 6.12293C318.345 4.18172 320 2.10115 320 -9.53674e-07L256 0H192Z" fill="#202020"/>
</g>
</g>
<defs>
<clipPath id="clip0">
<rect width="3297" height="2051" fill="white"/>
</clipPath>
</defs>
</svg>
