<svg width="693" height="1147" viewBox="0 0 693 1147" fill="none" xmlns="http://www.w3.org/2000/svg">
<rect width="693" height="1147" fill="#EEEEEE"/>
<rect x="91" y="564" width="512" height="512" fill="white"/>
<rect x="343" y="564" width="8" height="512" fill="#202020"/>
<circle cx="347" cy="1076" r="4" fill="#202020"/>
<ellipse cx="347" cy="564" rx="4" ry="1" fill="#F04B40"/>
<rect x="91" y="303" width="512" height="256" fill="white"/>
<ellipse cx="347" cy="559" rx="4" ry="1" fill="#F7E7CA"/>
<path d="M283 303C283 486.742 343 530.84 343 559H351C351 533.4 411 486.742 411 303H283Z" fill="#F7E7CA"/>
<ellipse cx="347" cy="303" rx="64" ry="16" fill="#202020"/>
<rect x="91" y="185" width="512" height="64" fill="white"/>
<ellipse cx="347" cy="249" rx="64" ry="16" fill="#F04B40"/>
<path d="M283 249C283 211 343 222.684 343 185H351C351 222.684 411 211 411 249H283Z" fill="#F04B40"/>
<ellipse cx="347" cy="185" rx="4" ry="1" fill="#202020"/>
<rect width="512" height="128" transform="matrix(-1 0 0 1 603 46)" fill="white"/>
<ellipse rx="4" ry="1" transform="matrix(-1 0 0 1 347 174)" fill="#202020"/>
<rect width="8" height="128" transform="matrix(-1 0 0 1 351 46)" fill="#BCB97F"/>
<ellipse rx="4" ry="1" transform="matrix(-1 0 0 1 347 46)" fill="#BCB97F"/>
<path d="M343 46C343 44.9391 343.421 43.9217 344.172 43.1716C344.922 42.4214 345.939 42 347 42C348.061 42 349.078 42.4214 349.828 43.1716C350.579 43.9217 351 44.9391 351 46L347 46H343Z" fill="#BCB97F"/>
</svg>
