<svg width="25" height="20" viewBox="0 0 25 20" fill="none" xmlns="http://www.w3.org/2000/svg">
<path d="M4.17527 -6.10352e-05L0.153809 19.001H1.52918L5.26659 1.28561H6.73166L2.99424 19.001H4.36961L8.37612 -6.10352e-05H4.17527Z" fill="#CAD1D6"/>
<path d="M18.5564 2.49654C18.7508 1.62946 18.6461 0.986621 18.2873 0.56803C17.9734 0.209238 17.495 0.0148926 16.8671 0.0148926H16.3887H16.1495C15.6113 0.0148926 15.0283 0.0148926 15.0283 0.0148926L11.0068 19.0159H12.3822L13.3539 14.4114H13.9519C15.2974 14.4114 16.2093 13.5443 16.5532 12.0045L18.5564 2.49654ZM15.2376 11.8999C14.9984 12.9613 14.52 13.1108 14.1313 13.1108H13.623L16.1196 1.28561H16.7027C16.912 1.28561 17.0914 1.33046 17.1661 1.43511C17.3156 1.58461 17.3156 1.9135 17.2408 2.39189L15.2376 11.8999Z" fill="#CAD1D6"/>
<path d="M12.3529 -6.10352e-05C11.8596 -6.10352e-05 11.2317 -6.10352e-05 11.0523 -6.10352e-05C11.0224 -6.10352e-05 10.9925 -6.10352e-05 10.9925 -6.10352e-05L5.28174 19.001H6.65711L7.50924 16.2054H9.01915L8.69026 19.001H10.0656L12.4127 -6.10352e-05C12.4127 -6.10352e-05 12.3978 -6.10352e-05 12.3529 -6.10352e-05ZM9.1836 14.9347H7.91288L10.9925 3.36361L9.1836 14.9347Z" fill="#CAD1D6"/>
<path d="M23.5054 -6.10352e-05L19.9175 8.89499L21.8011 -6.10352e-05H20.4258L16.4043 19.001H17.7797L19.8876 9.04449V19.001H21.2779V8.92489L25.0004 -6.10352e-05H23.5054Z" fill="#CAD1D6"/>
</svg>
